<?xml version="1.0" encoding="UTF-8" standalone="no"?>
<!DOCTYPE svg PUBLIC "-//W3C//DTD SVG 1.1//EN" "http://www.w3.org/Graphics/SVG/1.1/DTD/svg11.dtd">
<svg width="100%" height="100%" viewBox="0 0 266 266" version="1.1" xmlns="http://www.w3.org/2000/svg" xmlns:xlink="http://www.w3.org/1999/xlink" xml:space="preserve" xmlns:serif="http://www.serif.com/" style="fill-rule:evenodd;clip-rule:evenodd;stroke-linecap:round;stroke-linejoin:round;">
    <g id="搴">
        <g transform="matrix(-0.578284,-0.815836,-0.815836,0.578284,-0.510291,137.502)">
            <path d="M-0.329,0.17C-0.193,0.172 -0.056,0.174 0.088,0.17" style="fill:none;fill-rule:nonzero;stroke:rgb(191,191,255);stroke-width:1px;"/>
        </g>
        <g transform="matrix(-7.50275,-123.545,-123.545,7.50275,137.117,297.209)">
            <path d="M1.292,0.353C1.275,0.468 1.246,0.587 1.239,0.713C1.233,0.835 1.247,0.963 1.347,1.028L0.327,1.09L0.197,-1.047L0.948,-1.093C0.965,-0.975 1.023,-0.896 1.075,-0.808C1.127,-0.718 1.172,-0.619 1.212,-0.48C1.252,-0.341 1.287,-0.162 1.301,-0.017C1.304,0.005 1.305,0.026 1.306,0.047C1.313,0.161 1.307,0.256 1.292,0.353Z" style="fill:url(#_Linear1);fill-rule:nonzero;"/>
        </g>
        <g transform="matrix(26.0285,-87.0955,-87.0955,-26.0285,109.801,161.381)">
            <path d="M1.353,1.665L-0.105,1.229C-0.203,1.099 -0.16,0.929 -0.095,0.776C-0.027,0.618 0.065,0.479 0.141,0.34C0.217,0.201 0.277,0.063 0.326,-0.129C0.376,-0.32 0.415,-0.566 0.429,-0.762C0.443,-0.959 0.432,-1.106 0.407,-1.246C0.382,-1.382 0.345,-1.51 0.378,-1.669L2.188,-1.128L1.353,1.665Z" style="fill:url(#_Linear2);fill-rule:nonzero;"/>
        </g>
    </g>
    <g id="灏忔€吔">
        <g transform="matrix(-0.829529,0.558464,0.558464,0.829529,71.3028,253.611)">
            <path d="M14.28,-23.355C15.787,-16.744 16.085,-11.527 15.955,-7.778C15.825,-4.029 15.266,-1.748 14.28,-0.213C13.294,1.324 11.881,2.116 9.538,1.685C7.196,1.253 3.925,-0.401 -1.152,-14.081" style="fill:rgb(246,236,197);fill-rule:nonzero;stroke:rgb(10,9,10);stroke-width:1px;stroke-linecap:butt;stroke-linejoin:miter;stroke-miterlimit:10;"/>
        </g>
        <g transform="matrix(-0.901313,0.433169,0.433169,0.901313,48.2249,252.27)">
            <path d="M12.754,-25.104C15.693,-19.374 15.794,-17.141 15.307,-13.949C14.82,-10.756 13.744,-6.604 12.754,-3.946C11.764,-1.286 10.86,-0.12 9.381,0.746C5.569,2.978 5.781,1.964 1.232,-11.915" style="fill:rgb(246,236,197);fill-rule:nonzero;stroke:rgb(10,9,10);stroke-width:1px;stroke-linecap:butt;stroke-linejoin:miter;stroke-miterlimit:10;"/>
        </g>
        <g transform="matrix(1,0,0,1,73.196,242.688)">
            <path d="M0,-148.228C-27.178,-123.861 -39.838,-82.934 -46.456,-58.301C-53.073,-33.668 -53.647,-25.332 -52.171,-18.267C-50.694,-11.204 -47.166,-5.414 -41.008,-2.707C-34.851,0 -26.063,-0.376 -17.915,-0.652C-9.766,-0.928 -2.255,-1.103 -4.781,-11.685" style="fill:rgb(246,236,197);fill-rule:nonzero;stroke:rgb(10,10,10);stroke-width:1px;stroke-linecap:butt;stroke-linejoin:miter;stroke-miterlimit:10;"/>
        </g>
        <g transform="matrix(1,0,0,1,78.7771,230.13)">
            <path d="M0,-140.08C-27.987,-106.042 -33.875,-83.205 -35.606,-65.536C-37.337,-47.867 -34.913,-35.366 -29.507,-25.21C-24.103,-15.056 -15.717,-7.249 -5.042,-2.495C5.633,2.26 18.599,3.962 35.131,3.832C51.663,3.702 71.76,1.74 88.233,-1.056C104.707,-3.853 117.555,-7.483 124.568,-18.407C131.581,-29.33 132.756,-47.546 130.108,-73.983C127.459,-100.42 126.736,-130.938 117.95,-144.042" style="fill:rgb(246,236,197);fill-rule:nonzero;stroke:rgb(10,9,10);stroke-width:1px;stroke-linecap:butt;stroke-linejoin:miter;stroke-miterlimit:10;"/>
        </g>
        <g transform="matrix(1,0,0,1,80.2566,215.239)">
            <path d="M0,-109.502C-17.624,-82.894 -21.331,-65.043 -22.421,-51.231C-23.511,-37.418 -21.984,-27.646 -18.581,-19.707C-15.177,-11.77 -9.897,-5.666 -3.175,-1.95C3.547,1.767 11.712,3.097 22.122,2.995C32.532,2.894 45.187,1.36 55.56,-0.825C65.933,-3.012 74.024,-5.85 78.44,-14.388C82.855,-22.927 83.596,-37.167 81.928,-57.833C80.261,-78.5 79.805,-102.356 74.272,-112.599" style="fill:rgb(245,247,245);fill-rule:nonzero;"/>
        </g>
        <g transform="matrix(1,0,0,1,198.31,242.736)">
            <path d="M0,-159.704C25.291,-147.383 38.456,-109.809 46.655,-81.862C54.855,-53.914 58.68,-35.066 57.331,-22.898C55.982,-10.731 49.461,-5.246 38.738,-2.622C28.016,0 13.091,-0.241 3.305,-1.408C-6.482,-2.576 -11.131,-4.671 -14.497,-8.415C-17.862,-12.161 -19.944,-17.555 -19.326,-25.469C-18.707,-33.384 -15.388,-43.819 -14.495,-59.853C-13.602,-75.887 -15.135,-97.52 -15.475,-111.149C-15.815,-124.777 -14.964,-130.4 -21.419,-133.522" style="fill:rgb(246,236,197);fill-rule:nonzero;stroke:rgb(10,9,10);stroke-width:1px;stroke-linecap:butt;stroke-linejoin:miter;stroke-miterlimit:10;"/>
        </g>
        <g transform="matrix(1,0,0,1,226.64,-44.6715)">
            <path d="M0,111.72C-11.34,125.63 -31.57,130.62 -60.39,134.78C-89.21,138.94 -126.61,142.27 -154.64,139.33C-182.67,136.39 -201.31,127.18 -212.21,111.05C-218.15,102.27 -221.78,91.44 -222.78,80.12C-223.63,70.64 -222.63,60.81 -219.59,51.55C-219.08,49.99 -218.51,48.44 -217.88,46.91C-210.41,28.57 -195.39,12.85 -182.41,3.05C-168.35,-7.57 -156.69,-11.23 -137.98,-16.98C-119.27,-22.72 -93.5,-30.55 -70.45,-28.46C-47.4,-26.38 -27.07,-14.39 -13.07,0.7C0.93,15.79 8.6,33.97 11.21,54.47C13.81,74.98 11.35,97.81 0,111.72" style="fill:rgb(246,236,197);fill-rule:nonzero;"/>
        </g>
        <g transform="matrix(1,0,0,1,226.64,-44.6715)">
            <path d="M0,111.72C-11.34,125.63 -31.57,130.62 -60.39,134.78C-89.21,138.94 -126.61,142.27 -154.64,139.33C-182.67,136.39 -201.31,127.18 -212.21,111.05C-218.15,102.27 -221.78,91.44 -222.78,80.12C-223.63,70.64 -222.63,60.81 -219.59,51.55C-219.08,49.99 -218.51,48.44 -217.88,46.91C-210.41,28.57 -195.39,12.85 -182.41,3.05C-168.35,-7.57 -156.69,-11.23 -137.98,-16.98C-119.27,-22.72 -93.5,-30.55 -70.45,-28.46C-47.4,-26.38 -27.07,-14.39 -13.07,0.7C0.93,15.79 8.6,33.97 11.21,54.47C13.81,74.98 11.35,97.81 0,111.72Z" style="fill:none;fill-rule:nonzero;stroke:rgb(10,9,10);stroke-width:1px;stroke-linecap:butt;stroke-linejoin:miter;stroke-miterlimit:10;"/>
        </g>
        <g transform="matrix(1,0,0,1,74.5285,55.5583)">
            <path d="M0,-107.815C-13.987,-103.505 -22.456,-97.642 -32.965,-89.675C-43.476,-81.709 -55.503,-71.32 -60.481,-56.081C-65.459,-40.842 -67.447,-25.487 -59.302,-13.385C-51.157,-1.282 -37.218,5.629 -16.27,7.836C4.68,10.043 32.639,7.544 54.18,4.423C75.722,1.301 88.862,-4.433 99.326,-12.881C113.008,-23.928 116.76,-42.042 114.813,-57.426C112.865,-72.811 107.869,-89.753 97.403,-101.072C86.938,-112.392 75.639,-114.732 58.41,-116.295C41.18,-117.858 13.987,-112.125 0,-107.815" style="fill:rgb(245,251,244);fill-rule:nonzero;"/>
        </g>
        <g transform="matrix(0.605897,-0.795543,-0.795543,-0.605897,177.089,-20.6804)">
            <path d="M-16.175,-8.013C-4.946,-8.014 4.157,1.09 4.158,12.319C4.158,23.549 -4.946,32.652 -16.176,32.652C-27.405,32.653 -36.508,23.549 -36.508,12.319C-36.509,1.09 -27.405,-8.013 -16.175,-8.013" style="fill:rgb(47,7,0);fill-rule:nonzero;"/>
        </g>
        <g transform="matrix(1,0,0,1,182.272,13.3637)">
            <path d="M0,20.488C4.426,16.667 6.792,11.124 4.171,5.383C1.784,0.155 -3.74,-3.128 -8.759,-4.813C-18.585,-8.113 -32.553,-7.213 -40.906,0C-45.332,3.821 -47.699,9.364 -45.078,15.105C-42.69,20.334 -37.166,23.615 -32.147,25.301C-22.322,28.601 -8.354,27.701 0,20.488" style="fill:rgb(239,159,132);fill-rule:nonzero;"/>
        </g>
        <g transform="matrix(1,0,0,1,23.2063,9.2367)">
            <path d="M0,19.97C-4.99,24.28 -12,26.34 -18.93,26.59C-19.78,17.11 -18.78,7.28 -15.74,-1.98C-15.23,-3.54 -14.66,-5.09 -14.03,-6.62C-12.19,-6.32 -10.42,-5.89 -8.76,-5.33C-3.74,-3.65 1.79,-0.37 4.17,4.86C6.79,10.6 4.43,16.15 0,19.97" style="fill:rgb(239,159,132);fill-rule:nonzero;"/>
        </g>
        <g transform="matrix(1,0,0,1,198.352,213.939)">
            <path d="M0,-129.213C-20.984,-125.243 -26.886,-116.208 -27.504,-94.511C-28.121,-72.815 -20.314,-41.654 -30.404,0" style="fill:rgb(246,236,197);fill-rule:nonzero;"/>
        </g>
        <g transform="matrix(1,0,0,1,30.1242,48.3191)">
            <path d="M0,-32.402C5.545,-32.727 16.222,-32.137 26.662,-33.464C37.103,-34.791 47.307,-38.035 56.007,-42.164C64.708,-46.293 71.904,-51.307 75.886,-53.814C79.868,-56.321 80.634,-56.321 82.581,-51.484C84.527,-46.647 87.654,-36.974 89.222,-27.198C90.79,-17.423 90.799,-7.547 88.264,0.915C85.728,9.376 80.648,16.422 71.383,20.057C62.119,23.693 48.671,23.919 39.335,23.261C30,22.603 24.777,21.063 19.176,17.223C13.576,13.383 7.598,7.243 3.425,0.235C-0.749,-6.772 -3.117,-14.647 -4.449,-19.764C-5.78,-24.881 -6.075,-27.241 -6.016,-29.04C-5.958,-30.839 -5.544,-32.078 0,-32.402" style="fill:rgb(170,195,218);fill-rule:nonzero;"/>
        </g>
        <g transform="matrix(1,0,0,1,30.1242,48.3191)">
            <path d="M0,-32.402C5.545,-32.727 16.222,-32.137 26.662,-33.464C37.103,-34.791 47.307,-38.035 56.007,-42.164C64.708,-46.293 71.904,-51.307 75.886,-53.814C79.868,-56.321 80.634,-56.321 82.581,-51.484C84.527,-46.647 87.654,-36.974 89.222,-27.198C90.79,-17.423 90.799,-7.547 88.264,0.915C85.728,9.376 80.648,16.422 71.383,20.057C62.119,23.693 48.671,23.919 39.335,23.261C30,22.603 24.777,21.063 19.176,17.223C13.576,13.383 7.598,7.243 3.425,0.235C-0.749,-6.772 -3.117,-14.647 -4.449,-19.764C-5.78,-24.881 -6.075,-27.241 -6.016,-29.04C-5.958,-30.839 -5.544,-32.078 0,-32.402Z" style="fill:none;fill-rule:nonzero;stroke:rgb(10,10,10);stroke-width:1px;stroke-linecap:butt;stroke-linejoin:miter;stroke-miterlimit:10;"/>
        </g>
        <g transform="matrix(1,0,0,1,30.3293,41.766)">
            <path d="M0,-24.675C5.182,-24.957 15.16,-24.445 24.917,-25.597C34.675,-26.75 44.211,-29.567 52.343,-33.153C60.474,-36.739 67.199,-41.093 70.92,-43.27C74.641,-45.447 78.947,-48.912 80.766,-44.712C82.585,-40.511 85.507,-32.11 86.972,-23.62C88.437,-15.131 87.609,-3.318 84.855,4.432C82.271,11.708 75.371,17.726 66.712,20.884C58.054,24.041 45.486,24.237 36.762,23.666C28.037,23.095 21.058,22.017 15.824,18.682C10.59,15.347 7.695,10.417 3.636,4.33C-0.375,-1.683 -2.913,-9.256 -4.158,-13.699C-5.402,-18.143 -5.678,-20.193 -5.623,-21.755C-5.567,-23.318 -5.182,-24.393 0,-24.675" style="fill:rgb(244,249,246);fill-rule:nonzero;"/>
        </g>
        <g transform="matrix(0.337117,0.941463,0.941463,-0.337117,78.9373,24.7192)">
            <path d="M-19.582,-27.811C-0.892,-34.482 15.177,-36.606 39.499,-27.811" style="fill:none;fill-rule:nonzero;stroke:rgb(2,2,2);stroke-width:1px;"/>
        </g>
        <g transform="matrix(0.41009,0.912045,0.912045,-0.41009,101.242,18.0814)">
            <path d="M-18.674,-28.871C-2.322,-36.04 19.337,-38.268 44.637,-28.871" style="fill:none;fill-rule:nonzero;stroke:rgb(2,2,2);stroke-width:1px;"/>
        </g>
        <g transform="matrix(0.371698,0.928354,0.928354,-0.371698,123.958,11.2248)">
            <path d="M-19.398,-26.565C2.2,-37.646 21.971,-37.307 40.091,-26.565" style="fill:none;fill-rule:nonzero;stroke:rgb(2,2,2);stroke-width:1px;"/>
        </g>
        <g transform="matrix(-0.038036,0.999276,0.999276,0.038036,65.2,5.05991)">
            <path d="M-14.102,-11.068C-9.393,-14.338 -2.511,-14.06 10.559,-11.068" style="fill:none;fill-rule:nonzero;stroke:black;stroke-width:1px;"/>
        </g>
        <g transform="matrix(0.605897,-0.795543,-0.795543,-0.605897,37.292,-25.8118)">
            <path d="M-16.175,-8.013C-4.946,-8.013 4.158,1.09 4.158,12.319C4.158,23.549 -4.946,32.651 -16.175,32.653C-27.404,32.652 -36.508,23.549 -36.508,12.32C-36.508,1.091 -27.405,-8.013 -16.175,-8.013" style="fill:rgb(47,7,0);fill-rule:nonzero;"/>
        </g>
        <g transform="matrix(0.605895,-0.795544,-0.795544,-0.605895,171.813,-19.2252)">
            <path d="M-11.821,-5.856C-3.614,-5.857 3.039,0.797 3.039,9.003C3.038,17.209 -3.614,23.861 -11.821,23.862C-20.027,23.863 -26.68,17.209 -26.68,9.003C-26.679,0.797 -20.027,-5.855 -11.821,-5.856" style="fill:rgb(255,238,51);fill-rule:nonzero;"/>
        </g>
        <g transform="matrix(0.605895,-0.795544,-0.795544,-0.605895,171.813,-19.2252)">
            <ellipse cx="-11.821" cy="9.003" rx="14.859" ry="14.86" style="fill:none;stroke:rgb(244,164,3);stroke-width:1px;stroke-linecap:butt;stroke-linejoin:miter;stroke-miterlimit:10;"/>
        </g>
        <g transform="matrix(1,0,0,1,127.669,213.242)">
            <path d="M0,57.396C-4.847,56.343 -4.448,53.813 -2.428,50.928C-0.409,48.042 3.231,44.801 4.297,41.372C5.362,37.942 3.854,34.325 2.683,30.655C1.511,26.985 0.676,23.262 2.007,18.53C3.337,13.797 6.835,8.054 12.396,4.33C17.957,0.604 25.582,-1.104 32.563,-0.237C39.543,0.631 45.88,4.075 49.585,10.317C53.292,16.559 54.365,25.599 54.594,32.958C54.823,40.317 54.208,45.993 53.483,50.044C52.758,54.097 51.926,56.524 47.167,57.512C42.407,58.5 33.722,58.05 24.332,58.037C14.942,58.024 4.848,58.449 0,57.396" style="fill:rgb(246,236,197);fill-rule:nonzero;"/>
        </g>
        <g transform="matrix(1,0,0,1,127.669,213.242)">
            <path d="M0,57.396C-4.847,56.343 -4.448,53.813 -2.428,50.928C-0.409,48.042 3.231,44.801 4.297,41.372C5.362,37.942 3.854,34.325 2.683,30.655C1.511,26.985 0.676,23.262 2.007,18.53C3.337,13.797 6.835,8.054 12.396,4.33C17.957,0.604 25.582,-1.104 32.563,-0.237C39.543,0.631 45.88,4.075 49.585,10.317C53.292,16.559 54.365,25.599 54.594,32.958C54.823,40.317 54.208,45.993 53.483,50.044C52.758,54.097 51.926,56.524 47.167,57.512C42.407,58.5 33.722,58.05 24.332,58.037C14.942,58.024 4.848,58.449 0,57.396Z" style="fill:none;fill-rule:nonzero;stroke:rgb(10,9,10);stroke-width:1px;stroke-linecap:butt;stroke-linejoin:miter;stroke-miterlimit:10;"/>
        </g>
        <g transform="matrix(1,0,0,1,59.7595,211.682)">
            <path d="M0,60.099C-8.195,59.105 -8.735,56.65 -7.167,54.037C-5.6,51.424 -1.924,48.654 -0.171,44.911C1.581,41.167 1.41,36.453 0,33.011C-1.409,29.571 -4.057,27.403 -6.037,22.779C-8.018,18.154 -9.332,11.073 -6.097,6.285C-2.863,1.497 4.919,-0.995 12.42,2.569C19.921,6.132 26.842,15.02 32.474,19.266C38.107,23.512 42.392,19.817 44.59,22.286C46.789,24.756 47.201,34.122 47.506,39.94C47.813,45.756 48.073,51.323 46.796,54.652C45.52,57.98 42.705,59.072 33.374,59.85C24.042,60.628 8.194,61.094 0,60.099" style="fill:rgb(246,236,197);fill-rule:nonzero;"/>
        </g>
        <g transform="matrix(1,0,0,1,59.7595,211.682)">
            <path d="M0,60.099C-8.195,59.105 -8.735,56.65 -7.167,54.037C-5.6,51.424 -1.924,48.654 -0.171,44.911C1.581,41.167 1.41,36.453 0,33.011C-1.409,29.571 -4.057,27.403 -6.037,22.779C-8.018,18.154 -9.332,11.073 -6.097,6.285C-2.863,1.497 4.919,-0.995 12.42,2.569C19.921,6.132 26.842,15.02 32.474,19.266C38.107,23.512 42.392,19.817 44.59,22.286C46.789,24.756 47.201,34.122 47.506,39.94C47.813,45.756 48.073,51.323 46.796,54.652C45.52,57.98 42.705,59.072 33.374,59.85C24.042,60.628 8.194,61.094 0,60.099Z" style="fill:none;fill-rule:nonzero;stroke:rgb(10,9,10);stroke-width:1px;stroke-linecap:butt;stroke-linejoin:miter;stroke-miterlimit:10;"/>
        </g>
        <g transform="matrix(1,0,0,1,244.566,256.622)">
            <path d="M0,-30.717C-2.821,-30.69 -6.41,-27.335 -8.417,-24.581C-10.423,-21.827 -10.847,-19.675 -11.031,-16.317C-11.217,-12.958 -11.164,-8.394 -10.905,-5.457C-10.647,-2.521 -10.185,-1.21 -9.352,-0.592C-8.518,0.026 -7.314,-0.047 -4.78,-1.927C-2.246,-3.806 1.618,-7.492 3.792,-11.495C5.966,-15.498 6.449,-19.819 5.663,-23.63C4.878,-27.441 2.822,-30.743 0,-30.717" style="fill:rgb(246,236,197);fill-rule:nonzero;"/>
        </g>
        <g transform="matrix(1,0,0,1,244.566,256.622)">
            <path d="M0,-30.717C-2.821,-30.69 -6.41,-27.335 -8.417,-24.581C-10.423,-21.827 -10.847,-19.675 -11.031,-16.317C-11.217,-12.958 -11.164,-8.394 -10.905,-5.457C-10.647,-2.521 -10.185,-1.21 -9.352,-0.592C-8.518,0.026 -7.314,-0.047 -4.78,-1.927C-2.246,-3.806 1.618,-7.492 3.792,-11.495C5.966,-15.498 6.449,-19.819 5.663,-23.63C4.878,-27.441 2.822,-30.743 0,-30.717Z" style="fill:none;fill-rule:nonzero;stroke:rgb(2,2,2);stroke-width:1px;stroke-linecap:butt;stroke-linejoin:miter;stroke-miterlimit:10;"/>
        </g>
        <g transform="matrix(1,0,0,1,175.801,250.463)">
            <path d="M0,-14.249C1.096,-19.109 3.818,-20.734 7.208,-21.439C10.599,-22.144 14.657,-21.928 17.664,-19.927C20.671,-17.926 22.626,-14.141 23.562,-11.356C24.5,-8.571 24.419,-6.788 22.08,-3.916C19.742,-1.044 15.146,2.917 11.477,5.152C7.808,7.387 5.065,7.895 3.301,7.882C1.536,7.869 0.749,7.336 0.091,3.022C-0.567,-1.293 -1.097,-9.389 0,-14.249" style="fill:rgb(246,236,197);fill-rule:nonzero;"/>
        </g>
        <g transform="matrix(1,0,0,1,175.801,250.463)">
            <path d="M0,-14.249C1.096,-19.109 3.818,-20.734 7.208,-21.439C10.599,-22.144 14.657,-21.928 17.664,-19.927C20.671,-17.926 22.626,-14.141 23.562,-11.356C24.5,-8.571 24.419,-6.788 22.08,-3.916C19.742,-1.044 15.146,2.917 11.477,5.152C7.808,7.387 5.065,7.895 3.301,7.882C1.536,7.869 0.749,7.336 0.091,3.022C-0.567,-1.293 -1.097,-9.389 0,-14.249Z" style="fill:none;fill-rule:nonzero;stroke:rgb(2,2,2);stroke-width:1px;stroke-linecap:butt;stroke-linejoin:miter;stroke-miterlimit:10;"/>
        </g>
        <g transform="matrix(1,0,0,1,205.087,252.362)">
            <path d="M0,-14.538C1.146,-16.953 3.438,-19.211 5.461,-20.685C7.484,-22.159 9.24,-22.849 11.466,-23.193C13.691,-23.538 16.388,-23.538 18.535,-22.613C20.683,-21.689 22.281,-19.84 23.293,-17.129C24.305,-14.419 24.73,-10.848 23.382,-6.694C22.034,-2.541 18.913,2.195 16.601,5.081C14.287,7.966 12.782,9 11.278,8.906C9.773,8.813 8.269,7.59 6.197,4.754C4.126,1.918 1.488,-2.532 0.171,-6.042C-1.147,-9.553 -1.146,-12.124 0,-14.538" style="fill:rgb(246,236,197);fill-rule:nonzero;"/>
        </g>
        <g transform="matrix(1,0,0,1,205.087,252.362)">
            <path d="M0,-14.538C1.146,-16.953 3.438,-19.211 5.461,-20.685C7.484,-22.159 9.24,-22.849 11.466,-23.193C13.691,-23.538 16.388,-23.538 18.535,-22.613C20.683,-21.689 22.281,-19.84 23.293,-17.129C24.305,-14.419 24.73,-10.848 23.382,-6.694C22.034,-2.541 18.913,2.195 16.601,5.081C14.287,7.966 12.782,9 11.278,8.906C9.773,8.813 8.269,7.59 6.197,4.754C4.126,1.918 1.488,-2.532 0.171,-6.042C-1.147,-9.553 -1.146,-12.124 0,-14.538Z" style="fill:none;fill-rule:nonzero;stroke:rgb(2,2,2);stroke-width:1px;stroke-linecap:butt;stroke-linejoin:miter;stroke-miterlimit:10;"/>
        </g>
        <g transform="matrix(1,0,0,1,170.031,218.463)">
            <path d="M0,-123.534C24.153,-124.389 49.246,-79.203 53.497,-58.828C57.748,-38.453 59.73,-24.711 59.031,-15.84C58.332,-6.969 54.951,-2.97 49.392,-1.057C43.833,0.855 36.096,0.679 31.022,-0.172C25.948,-1.023 23.538,-2.551 21.794,-5.281C20.049,-8.012 18.969,-11.944 19.29,-17.714C19.61,-23.484 21.332,-31.092 21.795,-42.782C22.258,-54.471 21.463,-70.244 21.286,-80.18C21.11,-90.116 15.922,-96.863 12.575,-99.139" style="fill:rgb(245,247,245);fill-rule:nonzero;"/>
        </g>
        <g transform="matrix(1,0,0,1,228.818,149.743)">
            <path d="M0,-32.451C-6.03,-32.446 -9.557,-27.414 -12.856,-24.554C-16.156,-21.693 -19.228,-21.004 -20.921,-19.342C-22.613,-17.68 -22.927,-15.048 -21.312,-12.524C-19.698,-10 -16.156,-7.587 -13.382,-5.643C-10.607,-3.7 -8.601,-2.226 -6.375,-1.302C-4.149,-0.377 -1.704,0 0.976,-1.012C3.656,-2.022 6.571,-4.421 10.839,-5.862" style="fill:rgb(229,242,238);fill-rule:nonzero;stroke:black;stroke-width:1px;stroke-linecap:butt;stroke-linejoin:miter;stroke-miterlimit:10;"/>
        </g>
    </g>
    <g id="韬綋">
        <g transform="matrix(1,0,0,1,130.668,239.952)">
            <path d="M0,-15.134C2.345,-15.45 5.806,-15.495 7.951,-14.516C10.096,-13.536 10.925,-11.533 11.283,-9.762C11.641,-7.99 11.527,-6.451 10.506,-4.812C9.485,-3.173 7.556,-1.434 5.228,-0.551C2.899,0.333 0.173,0.361 -0.987,-0.302C-2.146,-0.965 -1.738,-2.32 -2.015,-3.558C-2.292,-4.797 -3.255,-5.921 -4.154,-6.842C-5.053,-7.764 -5.889,-8.483 -5.986,-9.582C-6.084,-10.683 -5.444,-12.162 -4.509,-13.197C-3.574,-14.231 -2.345,-14.818 0,-15.134" style="fill:rgb(245,241,216);fill-rule:nonzero;"/>
        </g>
        <g transform="matrix(1,0,0,1,130.668,239.952)">
            <path d="M0,-15.134C2.345,-15.45 5.806,-15.495 7.951,-14.516C10.096,-13.536 10.925,-11.533 11.283,-9.762C11.641,-7.99 11.527,-6.451 10.506,-4.812C9.485,-3.173 7.556,-1.434 5.228,-0.551C2.899,0.333 0.173,0.361 -0.987,-0.302C-2.146,-0.965 -1.738,-2.32 -2.015,-3.558C-2.292,-4.797 -3.255,-5.921 -4.154,-6.842C-5.053,-7.764 -5.889,-8.483 -5.986,-9.582C-6.084,-10.683 -5.444,-12.162 -4.509,-13.197C-3.574,-14.231 -2.345,-14.818 0,-15.134Z" style="fill:none;fill-rule:nonzero;stroke:rgb(10,7,9);stroke-width:1px;stroke-linecap:butt;stroke-linejoin:miter;stroke-miterlimit:10;"/>
        </g>
        <g transform="matrix(1,0,0,1,120.716,197.784)">
            <path d="M0,-5.635C-0.354,-4.207 -0.889,-1.654 0.045,-0.045C0.979,1.563 3.382,2.227 5.55,2.427C7.718,2.626 9.649,2.36 11.25,0.797C12.849,-0.766 14.118,-3.627 14.767,-5.245C15.417,-6.864 15.449,-7.241 15.059,-7.587C14.669,-7.933 13.857,-8.246 11.394,-8.254C8.931,-8.261 4.814,-7.962 2.67,-7.662C0.526,-7.363 0.354,-7.062 0,-5.635" style="fill:rgb(245,241,216);fill-rule:nonzero;"/>
        </g>
        <g transform="matrix(1,0,0,1,146.699,244.198)">
            <path d="M0,-48.745C0,-48.745 2.582,-48.188 4.949,-44.72C7.317,-41.25 16.555,-22.379 16.966,-18.254C17.377,-14.129 19.534,-8.608 9.264,-4.474C-1.848,0 -8.556,-9.833 -5.674,-16.088C-3.585,-20.618 5.092,-17.457 5.694,-17.917C6.295,-18.376 4.049,-27.121 2.382,-28.955C0.716,-30.788 -3.313,-32.567 -3.313,-32.567L-6.55,-37.121L-5.201,-46.371L0,-48.745" style="fill:rgb(245,241,216);fill-rule:nonzero;stroke:rgb(10,8,10);stroke-width:1px;stroke-linecap:butt;stroke-linejoin:miter;stroke-miterlimit:10;"/>
        </g>
        <g transform="matrix(1,0,0,1,115.56,206.338)">
            <path d="M0,-15.278C0,-15.278 -6.464,-16.139 -9.107,-13.764C-11.75,-11.389 -25.591,-11.249 -25.591,-11.249L-26.5,0.861L-4.28,0.027L0,-15.278Z" style="fill:rgb(245,241,216);fill-rule:nonzero;stroke:rgb(10,8,10);stroke-width:1px;stroke-linecap:butt;stroke-linejoin:miter;stroke-miterlimit:10;"/>
        </g>
        <g transform="matrix(1,0,0,1,137.785,255.324)">
            <path d="M0,-7.728C0,-7.728 -0.441,-5.265 0.004,-4.452C0.45,-3.637 8.615,9.889 8.615,9.889L-9.531,10.949L-10.308,-17.198L0.356,-18.677L0,-7.728Z" style="fill:rgb(252,225,185);fill-rule:nonzero;"/>
        </g>
        <g transform="matrix(0.0566257,0.998395,0.998395,-0.0566257,130.418,252.525)">
            <path d="M-12.778,-4.958L9.986,-4.958L9.8,-14.148L-17.851,-13.504L-12.778,-4.958Z" style="fill:rgb(252,225,185);fill-rule:nonzero;"/>
        </g>
    </g>
    <g id="琛ｆ湇">
        <g transform="matrix(1,0,0,1,113.614,247.348)">
            <path d="M0,-17.258L-0.678,-0.537L14.73,0L15.002,-11.099" style="fill:rgb(95,158,62);fill-rule:nonzero;stroke:rgb(10,6,9);stroke-width:1px;stroke-linecap:butt;stroke-linejoin:miter;stroke-miterlimit:10;"/>
        </g>
        <g transform="matrix(1,0,0,1,128.663,247.96)">
            <path d="M0,-17.258L-1.395,0L14.73,0L14.292,-8.629" style="fill:rgb(95,158,62);fill-rule:nonzero;stroke:rgb(10,6,9);stroke-width:1px;stroke-linecap:butt;stroke-linejoin:miter;stroke-miterlimit:10;"/>
        </g>
        <g transform="matrix(1,0,0,1,148.145,190.268)">
            <path d="M0,47.301C-7.971,47.459 -15.896,47.432 -23.851,46.608C-27.321,46.247 -30.738,45.746 -34.122,44.851C-35.518,44.482 -36.884,44.049 -38.221,43.499C-38.525,43.375 -38.825,43.244 -39.124,43.107C-39.524,42.922 -39.362,42.599 -39.366,42.296C-39.372,41.799 -39.377,46.214 -39.381,45.717C-39.395,43.82 -39.392,41.922 -39.367,40.024C-39.266,32.045 -38.299,28.445 -37.149,20.531C-36.481,15.938 -35.593,11.435 -34.193,6.992C-33.727,5.514 -33.206,4.061 -32.603,2.631C-32.364,2.066 -32.113,1.505 -31.847,0.952C-31.787,0.827 -31.727,0.703 -31.665,0.579C-31.575,0.398 -31.428,0.502 -31.298,0.503C-31.108,0.505 -30.918,0.508 -30.729,0.511C-30.024,0.523 -29.32,0.544 -28.616,0.579C-28.061,0.607 -27.505,0.643 -26.951,0.692C-26.699,0.713 -26.448,0.738 -26.196,0.766C-25.901,0.798 -26.103,1.389 -26.112,1.545C-26.176,2.538 -26.198,3.515 -26.047,4.507C-25.84,5.87 -25.429,6.865 -24.229,7.685C-22.91,8.586 -21.824,8.511 -20.418,7.952C-19.306,7.51 -18.477,6.801 -17.654,5.98C-16.128,4.455 -14.908,2.736 -13.718,0.959C-13.512,0.651 -13.29,-0.158 -12.719,-0.145C-12.481,-0.139 -12.245,-0.128 -12.008,-0.109C-11.524,-0.071 -11.046,-0.009 -10.568,0.073C-9.583,0.243 -8.626,0.491 -7.676,0.792C-5.861,1.365 -4.133,2.108 -2.423,2.932C-1.827,3.22 -1.365,3.558 -1.026,4.153C-0.879,4.409 -0.593,4.586 -0.756,4.964C-0.888,5.269 -1.119,4.977 -1.301,4.973C-1.554,4.967 -1.715,5.054 -1.879,5.238C-2.38,5.798 -2.882,6.356 -3.344,6.95C-4.445,8.366 -5.144,9.841 -5.525,11.596C-6.324,15.266 -6.03,19.938 -3.361,23.024C-2.759,23.721 -2.086,24.308 -1.333,24.834C-0.947,25.104 -0.548,25.351 -0.137,25.58C0.054,25.688 0.418,25.648 0.318,26.005C0.25,26.25 0.183,26.496 0.118,26.743C-0.409,28.75 -0.798,30.772 -1.067,32.829C-2.133,40.981 -1.866,39.392 0,47.301Z" style="fill:rgb(95,158,62);fill-rule:nonzero;stroke:rgb(10,6,9);stroke-width:1px;stroke-linecap:butt;stroke-linejoin:miter;stroke-miterlimit:10;"/>
        </g>
        <g transform="matrix(1,0,0,1,118.688,221.593)">
            <path d="M0,-30.28L0.062,-30.28C1.497,-30.28 2.728,-29.448 2.848,-28.348C2.989,-27.052 3.511,-25.472 5.134,-24.851C7.764,-23.844 9.059,-24.274 11.778,-26.028C13.474,-27.122 14.96,-28.687 15.878,-29.765C16.515,-30.512 17.689,-30.873 18.823,-30.678C20.766,-30.347 24.209,-29.677 25.918,-28.916C26.357,-28.719 20.612,-22.478 20.269,-17.482C19.906,-12.218 23.781,-8.924 23.788,-7.311C23.798,-5.001 23.056,-4.256 22.661,-1.37C22.506,-0.245 21.244,0.593 19.774,0.546L-4.494,-0.225C-5.891,-0.269 -7.032,-1.099 -7.154,-2.171C-7.689,-6.882 -6.897,-19.394 -2.532,-29.042C-2.167,-29.848 -1.085,-30.28 0,-30.28" style="fill:rgb(156,229,121);fill-rule:nonzero;"/>
        </g>
    </g>
    <g id="写">
        <g transform="matrix(1,0,0,1,95.9626,248.804)">
            <path d="M0,20.5L61.863,20.5C61.863,20.5 62.972,15.764 59.313,15.432C56.627,15.188 49.52,15.242 45.931,15.288C44.614,15.306 43.476,14.388 43.212,13.1C43.09,12.508 42.978,11.832 42.905,11.118C42.358,5.724 43.016,2.38 43.016,2.38C43.016,2.38 35.644,0 35.422,4.592L26.608,4.647C26.608,4.647 26.608,1.771 22.173,1.938C17.738,2.104 14.689,1.551 14.745,4.427L5.377,4.481C5.377,4.481 5.72,1.712 0.177,1.491L0.447,12.633C0.447,12.633 -2.328,12.204 -2.273,15.063C-2.217,17.92 -2.827,20.188 0,20.5" style="fill:rgb(233,145,144);fill-rule:nonzero;"/>
        </g>
        <g transform="matrix(1,0,0,1,106.425,256.583)">
            <path d="M0,-1.696C-0.107,-2.754 -0.628,-2.767 -1.829,-3.022C-2.467,-3.157 -3.043,-3.199 -4.417,-2.954C-4.835,-2.88 -5.416,-2.569 -6.151,-2.319C-6.716,-2.128 -7.144,-1.67 -7.044,-0.688C-6.914,0.598 -4.759,1.503 -2.969,1.323C-1.18,1.142 0.13,-0.41 0,-1.696" style="fill:rgb(238,183,172);fill-rule:nonzero;"/>
        </g>
        <g transform="matrix(-0.172571,0.984997,0.984997,0.172571,114.989,251.494)">
            <path d="M2.506,-3.626C2.506,-3.626 0.139,-4.674 -0.249,-2.209C-0.637,0.255 -1.556,1.932 2.506,2.621C5.942,3.202 4.873,2.233 4.873,2.233L2.506,-3.626Z" style="fill:rgb(86,62,141);fill-rule:nonzero;"/>
        </g>
        <g transform="matrix(-0.193699,-0.981061,-0.981061,0.193699,118.226,251.299)">
            <path d="M-2.954,-3.845C-2.954,-3.845 -0.811,-3.856 -0.151,-2.274C0.66,-0.333 1.334,1.54 -2.954,1.725C-6.493,1.879 -5.336,1.013 -5.336,1.013L-2.954,-3.845Z" style="fill:rgb(86,62,141);fill-rule:nonzero;"/>
        </g>
        <g transform="matrix(1,0,0,1,131.412,255.47)">
            <path d="M0,-1.822C0,-1.822 0,-5.047 3.19,-4.897C6.48,-4.743 7.885,-4.667 7.504,-3.936C7.17,-3.296 7.085,0.647 7.33,1.936C7.574,3.225 5.727,1.68 5.616,1.531C5.504,1.38 0,-1.822 0,-1.822" style="fill:rgb(86,62,141);fill-rule:nonzero;"/>
        </g>
        <g transform="matrix(1,0,0,1,95.9626,248.804)">
            <path d="M0,20.5L61.863,20.5C61.863,20.5 62.972,15.764 59.313,15.432C56.627,15.188 49.52,15.242 45.931,15.288C44.614,15.306 43.476,14.388 43.212,13.1C43.09,12.508 42.978,11.832 42.905,11.118C42.358,5.724 43.016,2.38 43.016,2.38C43.016,2.38 35.644,0 35.422,4.592L26.608,4.647C26.608,4.647 26.608,1.771 22.173,1.938C17.738,2.104 14.689,1.551 14.745,4.427L5.377,4.481C5.377,4.481 5.72,1.712 0.177,1.491L0.447,12.633C0.447,12.633 -2.328,12.204 -2.273,15.063C-2.217,17.92 -2.827,20.188 0,20.5Z" style="fill:none;fill-rule:nonzero;stroke:rgb(2,2,2);stroke-width:1px;stroke-linecap:butt;stroke-linejoin:miter;stroke-miterlimit:10;"/>
        </g>
        <g transform="matrix(0.567981,0.823042,0.823042,-0.567981,95.197,253.75)">
            <path d="M3.392,-0.905C3.392,-0.905 5.961,0.699 5.524,1.966C5.088,3.231 3.631,4.772 3.392,4.937C3.154,5.102 1.064,7.187 -2.298,2.753L3.392,-0.905Z" style="fill:rgb(86,62,141);fill-rule:nonzero;"/>
        </g>
        <g transform="matrix(1,0,0,1,116.979,269.303)">
            <path d="M0,-18.445L0,-6.949C0,-6.949 -3.375,-7.474 -2.351,0" style="fill:none;fill-rule:nonzero;stroke:black;stroke-width:1px;stroke-linecap:butt;stroke-linejoin:miter;stroke-miterlimit:10;"/>
        </g>
        <g transform="matrix(1,0,0,1,130.511,256.747)">
            <path d="M0,-1.94C-0.092,-2.844 -0.853,-2.825 -2.594,-2.97C-3.518,-3.048 -4.358,-3.048 -6.381,-2.753C-6.999,-2.664 -7.867,-2.361 -8.958,-2.1C-9.795,-1.901 -10.449,-1.48 -10.364,-0.64C-10.252,0.459 -7.157,1.108 -4.529,0.842C-1.9,0.577 0.111,-0.84 0,-1.94" style="fill:rgb(238,183,172);fill-rule:nonzero;"/>
        </g>
        <g transform="matrix(1,0,0,1,126.521,255.013)">
            <path d="M0,-0.847C-0.032,-1.165 -0.414,-1.147 -1.284,-1.172C-1.746,-1.186 -2.167,-1.174 -3.185,-1.039C-3.495,-0.998 -3.935,-0.877 -4.485,-0.769C-4.908,-0.686 -5.242,-0.528 -5.212,-0.232C-5.172,0.156 -3.632,0.339 -2.311,0.206C-0.99,0.072 0.039,-0.459 0,-0.847" style="fill:rgb(247,242,226);fill-rule:nonzero;"/>
        </g>
        <g transform="matrix(1,0,0,1,135.506,262.584)">
            <path d="M0,-1.696C-0.107,-2.754 -0.628,-2.767 -1.829,-3.022C-2.467,-3.157 -3.043,-3.199 -4.416,-2.954C-4.835,-2.879 -5.416,-2.569 -6.151,-2.319C-6.715,-2.128 -7.144,-1.67 -7.044,-0.688C-6.914,0.598 -4.759,1.503 -2.969,1.323C-1.18,1.142 0.13,-0.41 0,-1.696" style="fill:rgb(251,241,225);fill-rule:nonzero;"/>
        </g>
        <g transform="matrix(1,0,0,1,113.845,262.584)">
            <path d="M0,-1.696C-0.107,-2.754 -0.628,-2.767 -1.829,-3.022C-2.467,-3.157 -3.043,-3.199 -4.417,-2.954C-4.835,-2.879 -5.416,-2.569 -6.151,-2.319C-6.716,-2.128 -7.144,-1.67 -7.044,-0.688C-6.914,0.598 -4.759,1.503 -2.97,1.323C-1.18,1.142 0.13,-0.41 0,-1.696" style="fill:rgb(251,241,225);fill-rule:nonzero;"/>
        </g>
        <g transform="matrix(1,0,0,1,101.374,260.824)">
            <path d="M0,1.003C0.509,0.069 0.257,-0.143 -0.206,-0.819C-0.452,-1.179 -0.717,-1.435 -1.531,-1.757C-1.779,-1.854 -2.233,-1.815 -2.732,-1.888C-3.115,-1.942 -3.572,-1.721 -4.044,-0.853C-4.663,0.282 -4.071,1.874 -3.083,2.409C-2.096,2.945 -0.618,2.139 0,1.003" style="fill:rgb(243,177,164);fill-rule:nonzero;"/>
        </g>
        <g transform="matrix(1,0,0,1,121.783,259.456)">
            <path d="M0,1.005C0.509,0.07 0.256,-0.141 -0.207,-0.818C-0.452,-1.177 -0.717,-1.433 -1.531,-1.755C-1.779,-1.852 -2.233,-1.814 -2.733,-1.886C-3.116,-1.941 -3.572,-1.719 -4.044,-0.851C-4.663,0.283 -4.071,1.876 -3.084,2.411C-2.097,2.946 -0.619,2.14 0,1.005" style="fill:rgb(243,177,164);fill-rule:nonzero;"/>
        </g>
        <g transform="matrix(0,-1,-1,0,109.904,261.275)">
            <path d="M-0.417,-0.416C-0.783,-0.416 -1.079,-0.229 -1.079,0.001C-1.079,0.23 -0.783,0.417 -0.417,0.417C-0.051,0.417 0.247,0.23 0.247,0.001C0.247,-0.229 -0.051,-0.416 -0.417,-0.416" style="fill:rgb(88,36,36);fill-rule:nonzero;"/>
        </g>
        <g transform="matrix(0,-1,-1,0,120.298,261.275)">
            <path d="M-0.417,-0.416C-0.783,-0.416 -1.079,-0.228 -1.079,0.001C-1.079,0.231 -0.783,0.417 -0.417,0.417C-0.051,0.417 0.247,0.231 0.247,0.001C0.247,-0.228 -0.051,-0.416 -0.417,-0.416" style="fill:rgb(88,36,36);fill-rule:nonzero;"/>
        </g>
        <g transform="matrix(0,-1,-1,0,131.162,261.414)">
            <path d="M-0.416,-0.417C-0.783,-0.417 -1.079,-0.23 -1.079,-0C-1.079,0.23 -0.783,0.416 -0.416,0.416C-0.05,0.416 0.247,0.23 0.247,-0C0.247,-0.23 -0.05,-0.417 -0.416,-0.417" style="fill:rgb(88,36,36);fill-rule:nonzero;"/>
        </g>
        <g transform="matrix(0,-1,-1,0,98.9499,261.047)">
            <path d="M-0.415,-0.416C-0.781,-0.416 -1.079,-0.23 -1.079,0C-1.079,0.229 -0.781,0.415 -0.415,0.415C-0.049,0.415 0.248,0.229 0.248,0C0.248,-0.23 -0.049,-0.416 -0.415,-0.416" style="fill:rgb(88,36,36);fill-rule:nonzero;"/>
        </g>
        <g transform="matrix(0,-1,-1,0,95.7407,263.79)">
            <path d="M-1.219,-1.219C-2.105,-1.219 -2.824,-0.673 -2.824,-0C-2.824,0.674 -2.105,1.219 -1.219,1.219C-0.333,1.219 0.385,0.674 0.385,-0C0.385,-0.673 -0.333,-1.219 -1.219,-1.219" style="fill:rgb(221,81,98);fill-rule:nonzero;"/>
        </g>
        <g transform="matrix(0,-1,-1,0,113.147,263.79)">
            <path d="M-1.219,-1.219C-2.105,-1.219 -2.824,-0.673 -2.824,0.001C-2.824,0.674 -2.105,1.219 -1.219,1.219C-0.333,1.219 0.385,0.674 0.385,0.001C0.385,-0.673 -0.333,-1.219 -1.219,-1.219" style="fill:rgb(221,81,98);fill-rule:nonzero;"/>
        </g>
        <g transform="matrix(0,-1,-1,0,116.389,263.734)">
            <path d="M-1.414,-1.414C-2.375,-1.414 -3.156,-0.781 -3.156,0C-3.156,0.781 -2.375,1.414 -1.414,1.414C-0.452,1.414 0.329,0.781 0.329,0C0.329,-0.781 -0.452,-1.414 -1.414,-1.414" style="fill:rgb(221,81,98);fill-rule:nonzero;"/>
        </g>
        <g transform="matrix(0,-1,-1,0,136.734,262.977)">
            <path d="M-1.218,-1.217C-2.031,-1.217 -2.689,-0.672 -2.689,0.001C-2.689,0.674 -2.031,1.218 -1.218,1.218C-0.406,1.218 0.254,0.674 0.254,0.001C0.254,-0.672 -0.406,-1.217 -1.218,-1.217" style="fill:rgb(221,81,98);fill-rule:nonzero;"/>
        </g>
        <g transform="matrix(0,-1,-1,0,101.928,264.018)">
            <path d="M-0.727,-0.727C-1.178,-0.727 -1.543,-0.401 -1.543,0.001C-1.543,0.402 -1.178,0.727 -0.727,0.727C-0.277,0.727 0.088,0.402 0.088,0.001C0.088,-0.401 -0.277,-0.727 -0.727,-0.727" style="fill:rgb(188,84,97);fill-rule:nonzero;"/>
        </g>
        <g transform="matrix(0,-1,-1,0,122.571,264.018)">
            <path d="M-0.727,-0.727C-1.178,-0.727 -1.543,-0.401 -1.543,0.001C-1.543,0.402 -1.178,0.727 -0.727,0.727C-0.277,0.727 0.088,0.402 0.088,0.001C0.088,-0.401 -0.277,-0.727 -0.727,-0.727" style="fill:rgb(188,84,97);fill-rule:nonzero;"/>
        </g>
    </g>
    <g id="鑴">
        <g transform="matrix(1,0,0,1,84.132,167.803)">
            <path d="M0,-21.924C-0.274,-16.289 -0.206,-11.665 0.599,-6.766C1.404,-1.868 2.946,3.305 4.778,6.919C6.611,10.533 8.735,12.588 11.989,15.003C15.244,17.418 19.628,20.193 25.246,21.701C30.864,23.207 37.715,23.448 43.641,23.139C49.567,22.83 54.569,21.974 59.913,19.405C65.256,16.836 70.943,12.554 75.208,6.731C79.473,0.908 82.315,-6.458 83.617,-13.223C84.919,-19.989 84.68,-26.155 84.234,-31.499C83.789,-36.842 83.138,-41.364 72.313,-43.368C61.488,-45.372 40.49,-44.859 26.993,-44.019C13.497,-43.18 7.502,-42.015 4.196,-38.11C0.891,-34.205 0.274,-27.559 0,-21.924" style="fill:rgb(236,222,200);fill-rule:nonzero;"/>
        </g>
        <g transform="matrix(1,0,0,1,84.132,167.803)">
            <path d="M0,-21.924C-0.274,-16.289 -0.206,-11.665 0.599,-6.766C1.404,-1.868 2.946,3.305 4.778,6.919C6.611,10.533 8.735,12.588 11.989,15.003C15.244,17.418 19.628,20.193 25.246,21.701C30.864,23.207 37.715,23.448 43.641,23.139C49.567,22.83 54.569,21.974 59.913,19.405C65.256,16.836 70.943,12.554 75.208,6.731C79.473,0.908 82.315,-6.458 83.617,-13.223C84.919,-19.989 84.68,-26.155 84.234,-31.499C83.789,-36.842 83.138,-41.364 72.313,-43.368C61.488,-45.372 40.49,-44.859 26.993,-44.019C13.497,-43.18 7.502,-42.015 4.196,-38.11C0.891,-34.205 0.274,-27.559 0,-21.924Z" style="fill:none;fill-rule:nonzero;stroke:rgb(10,8,10);stroke-width:1px;stroke-linecap:butt;stroke-linejoin:miter;stroke-miterlimit:10;"/>
        </g>
        <g transform="matrix(1,0,0,1,85.2776,166.332)">
            <path d="M0,-20.301C-0.254,-15.083 -0.19,-10.801 0.555,-6.266C1.301,-1.73 2.728,3.059 4.425,6.406C6.122,9.752 8.088,11.655 11.102,13.891C14.115,16.127 18.175,18.696 23.377,20.092C28.579,21.487 34.923,21.71 40.411,21.424C45.898,21.138 50.529,20.345 55.477,17.967C60.425,15.588 65.691,11.623 69.64,6.231C73.589,0.84 76.222,-5.98 77.427,-12.244C78.633,-18.509 78.41,-24.218 77.998,-29.166C77.585,-34.114 76.983,-38.301 66.959,-40.156C56.937,-42.011 37.492,-41.536 24.995,-40.759C12.498,-39.982 6.947,-38.903 3.886,-35.287C0.825,-31.672 0.254,-25.518 0,-20.301" style="fill:rgb(242,251,239);fill-rule:nonzero;"/>
        </g>
        <g transform="matrix(1,0,0,1,104.08,161.382)">
            <path d="M0,0.001C0,-1.541 -0.505,-3.082 -1.36,-4.08C-2.215,-5.077 -3.42,-5.531 -4.625,-5.531C-5.831,-5.531 -7.036,-5.077 -7.878,-4.08C-8.721,-3.082 -9.2,-1.541 -9.2,0.001C-9.2,1.542 -8.721,3.084 -7.878,4.081C-7.036,5.079 -5.831,5.532 -4.625,5.532C-3.42,5.532 -2.215,5.079 -1.36,4.081C-0.505,3.084 0,1.542 0,0.001" style="fill:rgb(15,64,86);fill-rule:nonzero;"/>
        </g>
        <g transform="matrix(1,0,0,1,104.08,161.382)">
            <path d="M0,0.001C0,-1.541 -0.505,-3.082 -1.36,-4.08C-2.215,-5.077 -3.42,-5.531 -4.625,-5.531C-5.831,-5.531 -7.036,-5.077 -7.878,-4.08C-8.721,-3.082 -9.2,-1.541 -9.2,0.001C-9.2,1.542 -8.721,3.084 -7.878,4.081C-7.036,5.079 -5.831,5.532 -4.625,5.532C-3.42,5.532 -2.215,5.079 -1.36,4.081C-0.505,3.084 0,1.542 0,0.001Z" style="fill:none;fill-rule:nonzero;stroke:rgb(10,10,10);stroke-width:1px;stroke-linecap:butt;stroke-linejoin:miter;stroke-miterlimit:10;"/>
        </g>
        <g transform="matrix(1,0,0,1,125.751,183.858)">
            <path d="M0,-4.426C-0.371,-3.602 -0.891,-2.833 -1.539,-2.137C-2.196,-1.451 -3.029,-0.891 -3.96,-0.541C-4.875,-0.187 -5.898,0.153 -6.877,-0.071C-7.842,-0.279 -8.741,-0.707 -9.418,-1.501C-9.461,-1.551 -9.455,-1.625 -9.406,-1.667C-9.392,-1.679 -9.374,-1.688 -9.357,-1.692C-8.354,-1.952 -7.521,-1.991 -6.726,-2.065C-5.948,-2.154 -5.186,-1.947 -4.403,-2.078C-3.636,-2.209 -2.877,-2.489 -2.166,-2.917C-1.438,-3.329 -0.79,-3.907 -0.166,-4.538C-0.126,-4.578 -0.062,-4.579 -0.022,-4.54C0.009,-4.51 0.016,-4.463 0,-4.426" style="fill-rule:nonzero;"/>
        </g>
        <g transform="matrix(1,0,0,1,99.6218,160.869)">
            <path d="M0,4.767L-0.181,4.767C-1.32,4.767 -2.244,3.844 -2.244,2.704L-2.244,2.018C-2.244,0.878 -1.747,0 -0.607,0L0.542,0.514C1.682,0.514 2.063,0.878 2.063,2.018L2.063,2.704C2.063,3.844 1.139,4.767 0,4.767Z" style="fill:rgb(63,144,162);fill-rule:nonzero;stroke:rgb(24,76,94);stroke-width:1px;stroke-linecap:butt;stroke-linejoin:miter;stroke-miterlimit:10;"/>
        </g>
        <g transform="matrix(1,0,0,1,102.716,157.715)">
            <path d="M0,0.46C-0.784,0.412 -1.391,0.415 -1.974,0.471C-2.551,0.521 -3.086,0.607 -3.621,0.722C-4.155,0.838 -4.687,0.979 -5.249,1.164C-5.82,1.343 -6.398,1.578 -7.135,1.858C-6.973,0.281 -5.569,-0.915 -4.038,-1.234C-3.266,-1.398 -2.441,-1.352 -1.701,-1.072C-0.969,-0.787 -0.302,-0.275 0,0.46" style="fill:rgb(16,37,43);fill-rule:nonzero;"/>
        </g>
        <g transform="matrix(1,0,0,1,88.4406,136.211)">
            <path d="M0,6.405C0,6.405 1,12.28 4.75,13.405C8.5,14.53 13.375,11.78 14.75,14.03C16.125,16.28 23.016,18.938 23.696,18.797C24.375,18.655 34.204,19.611 35.102,20.008C36,20.405 46.456,18.931 47.353,18.043C48.25,17.155 54.875,15.78 58.125,15.155C61.375,14.53 68.875,14.09 69.375,12.622C69.875,11.155 62,-7.095 62,-7.095L29.615,-14L-0.5,0.298L0,6.405Z" style="fill:rgb(244,231,204);fill-rule:nonzero;"/>
        </g>
        <g transform="matrix(1,0,0,1,129.729,164.61)">
            <path d="M0,-6.27C0,-6.27 0.813,-9.309 4.677,-9.66C8.635,-10.02 13.718,-9.354 14.552,-6.716C15.525,-3.633 15.093,0.149 13.468,1.896C11.843,3.644 7.269,3.75 5.177,3.396C2.218,2.896 -1.782,0.796 0,-6.27Z" style="fill:rgb(15,64,86);fill-rule:nonzero;stroke:rgb(10,10,10);stroke-width:1px;stroke-linecap:butt;stroke-linejoin:miter;stroke-miterlimit:10;"/>
        </g>
        <g transform="matrix(1,0,0,1,131.833,162.848)">
            <path d="M0,-0.524C0,-1.775 0.497,-2.859 2.158,-3.037C7.513,-3.612 5.122,-1.025 8.726,-2.956C10.703,-4.014 10.534,1.101 9.083,2.36C7.782,3.49 4.77,3.331 3.033,3.115C1.161,2.881 0,1.57 0,-0.524" style="fill:rgb(63,144,162);fill-rule:nonzero;"/>
        </g>
        <g transform="matrix(1,0,0,1,131.833,162.848)">
            <path d="M0,-0.524C0,-1.775 0.497,-2.859 2.158,-3.037C7.513,-3.612 5.122,-1.025 8.726,-2.956C10.703,-4.014 10.534,1.101 9.083,2.36C7.782,3.49 4.77,3.331 3.033,3.115C1.161,2.881 0,1.57 0,-0.524Z" style="fill:none;fill-rule:nonzero;stroke:rgb(24,76,94);stroke-width:1px;stroke-linecap:butt;stroke-linejoin:miter;stroke-miterlimit:10;"/>
        </g>
        <g transform="matrix(1,0,0,1,144.625,157.706)">
            <path d="M0,-0.035C-1.618,-0.224 -3.134,-0.249 -4.667,-0.18C-6.192,-0.111 -7.704,0.053 -9.214,0.256C-10.722,0.472 -12.235,0.709 -13.752,1.019C-15.271,1.322 -16.795,1.663 -18.408,1.928C-17.138,0.904 -15.702,0.127 -14.196,-0.477C-12.691,-1.086 -11.104,-1.505 -9.485,-1.724C-7.867,-1.947 -6.212,-1.963 -4.583,-1.732C-2.966,-1.51 -1.325,-1.005 0,-0.035" style="fill:rgb(16,30,35);fill-rule:nonzero;"/>
        </g>
        <g transform="matrix(1,0,0,1,144.334,156.012)">
            <path d="M0,1.267C-1.715,1.066 -3.168,1.029 -4.668,1.055C-5.417,1.108 -6.146,1.073 -6.884,1.153C-7.619,1.182 -8.356,1.222 -9.091,1.309C-9.833,1.333 -10.569,1.435 -11.316,1.5L-12.443,1.606C-12.817,1.662 -13.197,1.7 -13.583,1.723C-15.115,1.884 -16.675,2.057 -18.42,2.064L-18.463,2.065C-18.516,2.065 -18.559,2.022 -18.559,1.969C-18.559,1.931 -18.536,1.897 -18.503,1.882C-15.59,0.548 -12.47,-0.398 -9.254,-0.683C-7.647,-0.798 -6.025,-0.757 -4.432,-0.504C-2.841,-0.256 -1.271,0.244 0.108,1.098C0.152,1.125 0.166,1.184 0.138,1.228C0.118,1.26 0.082,1.277 0.047,1.272L0,1.267Z" style="fill-rule:nonzero;"/>
        </g>
        <g transform="matrix(1,0,0,1,102.429,158.221)">
            <path d="M0,-1.677C-0.875,-1.065 -1.604,-0.706 -2.323,-0.416C-3.036,-0.105 -3.726,0.094 -4.442,0.241C-5.159,0.38 -5.893,0.473 -6.698,0.451C-7.498,0.448 -8.346,0.377 -9.361,0.046L-9.429,0.023C-9.475,0.009 -9.5,-0.041 -9.485,-0.087C-9.478,-0.111 -9.46,-0.128 -9.44,-0.139C-7.984,-0.853 -6.429,-1.359 -4.841,-1.719C-3.242,-2.01 -1.587,-2.15 0.023,-1.876C0.071,-1.867 0.103,-1.823 0.095,-1.776C0.091,-1.751 0.077,-1.732 0.059,-1.719L0,-1.677Z" style="fill-rule:nonzero;"/>
        </g>
    </g>
    <g id="澶村彂">
        <g transform="matrix(1,0,0,1,109.08,139.257)">
            <path d="M0,-53.399L-19.11,-42.899L-23.625,-37.399L-25.625,-9.524L-18,-3.131L-9.687,-4.055L6.217,2.159L9.811,2.159L10.936,-1.224L20.375,-0.359L30.589,3.972L43.037,4.492L49.25,5.75L52.328,3.972L20.375,-55.024L12.621,-59.149L0,-53.399Z" style="fill:rgb(246,149,104);fill-rule:nonzero;stroke:black;stroke-width:1px;stroke-linecap:butt;stroke-linejoin:miter;stroke-miterlimit:10;"/>
        </g>
        <g transform="matrix(1,0,0,1,150.507,153.662)">
            <path d="M0,-16.321C8.463,-7.627 12.708,-4.008 14.595,0C2.158,-1.317 -12.464,-3.602 -19.461,-9.378" style="fill:rgb(200,86,65);fill-rule:nonzero;stroke:black;stroke-width:1px;stroke-linecap:butt;stroke-linejoin:miter;stroke-miterlimit:10;"/>
        </g>
        <g transform="matrix(1,0,0,1,146.372,151.456)">
            <path d="M0,-16.633C4.5,-10.446 11.127,-4.367 14.188,-1.791C15.489,-0.695 15.708,0 13.469,-0.321C1.906,-1.977 -12.53,-6.826 -18.656,-11.883" style="fill:rgb(246,149,104);fill-rule:nonzero;"/>
        </g>
        <g transform="matrix(1,0,0,1,119.41,151.558)">
            <path d="M0,-10.809C-0.69,-5.389 6.451,2.615 10.365,7.004C-4.357,4.878 -20.684,-6.882 -25.424,-17.813" style="fill:rgb(200,86,65);fill-rule:nonzero;stroke:black;stroke-width:1px;stroke-linecap:butt;stroke-linejoin:miter;stroke-miterlimit:10;"/>
        </g>
        <g transform="matrix(1,0,0,1,117.872,149.498)">
            <path d="M0,-9.737C-0.937,-6.112 2.8,4.462 8.25,6.668C-4.875,1.356 -16.695,-5.474 -21.435,-16.405" style="fill:rgb(246,149,104);fill-rule:nonzero;"/>
        </g>
        <g transform="matrix(1,0,0,1,87.1926,156.995)">
            <path d="M0,-56.98C-7.389,-51.745 -10.386,-46.895 -12.64,-43.883C-14.893,-40.872 -16.403,-39.699 -21.042,-41.182C-20.233,-35.249 -16.192,-33.714 -13.829,-32.501C-11.465,-31.288 -10.78,-30.397 -11.003,-29.37C-11.226,-28.342 -12.356,-27.177 -13.401,-25.97C-14.447,-24.763 -15.407,-23.513 -16.932,-22.054C-18.456,-20.594 -20.544,-18.926 -21.619,-17.77C-22.693,-16.614 -22.752,-15.971 -21.771,-15.693C-20.789,-15.415 -18.766,-15.502 -16.903,-15.775C-15.041,-16.049 -13.338,-16.509 -12.625,-16.037C-11.911,-15.565 -12.185,-14.16 -12.559,-12.741C-12.932,-11.322 -13.406,-9.888 -13.357,-8.796C-13.31,-7.704 -12.74,-6.954 -11.867,-7.311C-10.994,-7.668 -9.817,-9.133 -8.845,-10.586C-7.872,-12.04 -7.103,-13.482 -6.151,-13.946C-5.199,-14.411 -4.064,-13.897 -3.478,-12.542C-2.891,-11.187 -2.852,-8.99 -1.909,-6.726C-0.965,-4.461 0.883,-2.13 1.998,-1.065C3.113,0 3.495,-0.202 3.573,-0.83C3.652,-1.459 3.427,-2.512 3.382,-4.49C3.337,-6.468 3.472,-9.37 3.906,-10.493C4.339,-11.615 5.071,-10.959 6.195,-10.224C7.32,-9.489 8.838,-8.676 9.427,-8.869C10.017,-9.063 9.677,-10.263 9.378,-11.636C9.079,-13.01 8.819,-14.559 9.428,-19.699" style="fill:rgb(200,86,65);fill-rule:nonzero;stroke:black;stroke-width:1px;stroke-linecap:butt;stroke-linejoin:miter;stroke-miterlimit:10;"/>
        </g>
        <g transform="matrix(1,0,0,1,88.1506,154.456)">
            <path d="M0,-53.62C-6.664,-48.693 -9.366,-44.129 -11.398,-41.295C-13.431,-38.461 -14.792,-37.358 -18.976,-38.753C-18.247,-33.17 -14.602,-31.725 -12.471,-30.584C-10.339,-29.443 -9.722,-28.605 -9.922,-27.638C-10.123,-26.671 -11.143,-25.575 -12.085,-24.438C-13.028,-23.302 -13.894,-22.126 -15.269,-20.753C-16.643,-19.38 -18.527,-17.809 -19.496,-16.722C-20.464,-15.634 -20.518,-15.029 -19.632,-14.767C-18.747,-14.506 -16.922,-14.587 -15.243,-14.845C-13.563,-15.102 -12.028,-15.536 -11.385,-15.091C-10.741,-14.647 -10.988,-13.325 -11.325,-11.989C-11.662,-10.654 -12.089,-9.305 -12.046,-8.277C-12.002,-7.249 -11.489,-6.543 -10.702,-6.879C-9.915,-7.216 -8.854,-8.594 -7.976,-9.962C-7.099,-11.329 -6.405,-12.687 -5.547,-13.123C-4.688,-13.56 -3.665,-13.078 -3.136,-11.802C-2.607,-10.527 -2.572,-8.46 -1.721,-6.329C-0.871,-4.198 0.796,-2.004 1.801,-1.002C2.807,0 3.151,-0.19 3.222,-0.781C3.293,-1.372 3.09,-2.364 3.05,-4.225C3.009,-6.086 3.131,-8.817 3.522,-9.873C3.913,-10.93 4.572,-10.312 5.587,-9.62C6.601,-8.929 7.97,-8.164 8.501,-8.346C9.033,-8.528 8.727,-9.657 8.457,-10.95C8.187,-12.243 7.953,-13.7 8.502,-18.537" style="fill:rgb(246,149,104);fill-rule:nonzero;"/>
        </g>
        <g transform="matrix(1,0,0,1,118.371,101.976)">
            <path d="M0,-19.573C-13.459,-19.805 -17.211,-15.777 -21.57,-12.308C-25.929,-8.841 -30.894,-5.934 -37.925,-5.798C-35.21,-1.926 -26.783,0.232 -15.582,-2.851" style="fill:rgb(246,149,104);fill-rule:nonzero;stroke:black;stroke-width:1px;stroke-linecap:butt;stroke-linejoin:miter;stroke-miterlimit:10;"/>
        </g>
        <g transform="matrix(1,0,0,1,159.036,77.6248)">
            <path d="M0,68.348C8.24,68.711 8.871,69.894 11.234,70.834C13.596,71.774 17.691,72.47 20.625,71.73C23.559,70.99 25.333,68.812 26.714,66.186C28.096,63.559 29.086,60.483 28.928,58.175C28.769,55.867 27.461,54.327 27.442,52.848C27.422,51.369 28.692,49.951 28.735,48.705C28.777,47.46 27.593,46.388 26.648,44.963C25.703,43.538 24.996,41.759 24.177,40.39C23.359,39.022 22.429,38.064 21.697,37.165C20.965,36.266 20.43,35.425 20.344,34.73C20.086,32.646 23.867,31.877 24.474,30.244C24.676,29.7 24.526,29.059 23.892,28.827C23.258,28.594 22.141,28.769 20.785,28.147C19.429,27.524 17.834,26.103 16.301,24.575C14.769,23.046 13.298,21.409 12.341,20.216C11.384,19.022 10.94,18.273 10.996,17.288C11.051,16.303 11.606,15.082 11.8,13.973C11.995,12.863 11.828,11.864 11.315,11.378C10.801,10.892 9.941,10.92 8.818,10.92C7.694,10.92 6.306,10.892 5.543,10.379C4.78,9.866 4.641,8.867 4.309,8.298C3.976,7.729 3.448,7.591 1.492,7.702C-0.464,7.813 -3.849,8.173 -6.055,8.298C-8.261,8.423 -9.288,8.312 -10.092,7.716C-10.897,7.119 -11.479,6.037 -12.129,4.586C-12.779,3.134 -13.497,1.314 -17.883,-1.12C-18.233,2.744 -18.167,4.598 -17.485,9.921C-21.409,3.619 -26.378,1.572 -30.746,0.803C-35.114,0.035 -38.879,0.545 -38.466,-4.122C-42.277,-2.506 -42.271,2.488 -39.701,6.702" style="fill:rgb(200,86,65);fill-rule:nonzero;stroke:black;stroke-width:1px;stroke-linecap:butt;stroke-linejoin:miter;stroke-miterlimit:10;"/>
        </g>
        <g transform="matrix(1,0,0,1,156.06,79.6354)">
            <path d="M0,62.063C7.228,62.381 8.565,60.99 10.638,61.813C12.71,62.636 15.927,63.461 18.5,62.813C21.073,62.165 20.913,60.738 22.125,58.438C23.337,56.138 24.64,53.834 24.5,51.813C24.36,49.792 22.767,49.159 22.75,47.863C22.733,46.568 23.963,45.296 24,44.205C24.037,43.115 25.345,42.832 24.516,41.584C23.687,40.336 23.066,38.779 22.348,37.581C21.63,36.382 20.814,35.543 20.173,34.756C19.53,33.968 19.062,33.232 18.986,32.624C18.76,30.799 22.076,30.126 22.608,28.695C22.786,28.219 22.654,27.658 22.098,27.454C21.542,27.25 20.562,27.404 19.372,26.859C18.183,26.313 16.784,25.07 15.44,23.731C14.096,22.392 12.806,20.959 11.966,19.914C11.127,18.869 10.737,18.213 10.786,17.351C10.834,16.488 11.321,15.419 11.491,14.447C11.662,13.475 11.516,12.601 11.065,12.175C10.615,11.75 9.861,11.774 8.875,11.774C7.89,11.774 6.673,11.75 6.003,11.3C5.334,10.851 5.212,9.976 4.92,9.478C4.628,8.98 4.166,8.858 2.45,8.956C0.734,9.053 -2.235,9.369 -4.17,9.478C-6.105,9.587 -7.005,9.49 -7.711,8.968C-8.417,8.445 -8.928,7.498 -9.498,6.227C-10.068,4.956 -9.777,3.278 -13.625,1.146C-13.932,4.531 -13.375,8.105 -14.375,11.98C-12.75,5.682 -21.997,3.588 -25.828,2.915C-29.659,2.242 -32.961,2.689 -32.599,-1.398C-35.942,0.017 -37.132,4.374 -34.879,8.063" style="fill:rgb(246,149,104);fill-rule:nonzero;"/>
        </g>
        <g transform="matrix(1,0,0,1,129.441,146.182)">
            <path d="M0,-12.13C3.563,-8.567 4.949,-4.809 9.708,-2.789C4.854,0 -11.087,-2.706 -15.723,-11.616" style="fill:rgb(200,86,65);fill-rule:nonzero;stroke:black;stroke-width:1px;stroke-linecap:butt;stroke-linejoin:miter;stroke-miterlimit:10;"/>
        </g>
        <g transform="matrix(1,0,0,1,128.324,140.523)">
            <path d="M0,-6.471C2.517,-0.606 6.902,1.821 7.089,2.133C7.747,3.229 -9.473,2.717 -15.89,-9.7" style="fill:rgb(246,149,104);fill-rule:nonzero;"/>
        </g>
        <g transform="matrix(-0.172798,-0.984957,-0.984957,0.172798,133.08,121.692)">
            <path d="M-5.094,-3.869C-6.819,-3.899 -8.248,-2.208 -8.283,-0.093C-8.319,2.022 -6.75,5.224 -5.094,4.736C-2.286,3.907 -3.61,1.878 -1.562,0.067C0.024,-1.333 -3.368,-3.84 -5.094,-3.869" style="fill:rgb(245,194,146);fill-rule:nonzero;"/>
        </g>
        <g transform="matrix(0.917623,0.397451,0.397451,-0.917623,106.399,95.607)">
            <path d="M1.801,-0.347C0.075,-0.376 -1.351,1.315 -1.387,3.431C-1.423,5.546 0.146,8.747 1.801,8.258C4.61,7.429 3.285,5.4 5.334,3.59C6.919,2.19 3.527,-0.318 1.801,-0.347" style="fill:rgb(245,194,146);fill-rule:nonzero;"/>
        </g>
        <g transform="matrix(1,0,0,1,109.228,125.141)">
            <path d="M0,-2.533C1.406,-0.037 -2.993,3.376 -8.208,3.948C-13.423,4.519 -18.063,2.19 -18.375,-0.658C-18.687,-3.506 -15.563,-5.877 -11.719,-6.564C-8.993,-7.052 -8.338,-4.87 -6.5,-4.033C-4.855,-3.284 -1.25,-4.752 0,-2.533" style="fill:rgb(245,196,158);fill-rule:nonzero;"/>
        </g>
        <g transform="matrix(0.305382,-0.95223,-0.95223,-0.305382,130.822,74.1857)">
            <path d="M-7.719,-5.631C-8.633,-5.631 -9.374,-2.002 -9.374,2.476C-9.373,6.953 -8.633,10.582 -7.719,10.581C-6.806,10.582 -6.065,6.952 -6.065,2.475C-6.065,-2.002 -6.806,-5.631 -7.719,-5.631" style="fill:rgb(245,194,146);fill-rule:nonzero;"/>
        </g>
        <g transform="matrix(1,0,0,1,87.1926,156.995)">
            <path d="M0,-56.98C-7.389,-51.745 -10.386,-46.895 -12.64,-43.883C-14.893,-40.872 -16.403,-39.699 -21.042,-41.182C-20.233,-35.249 -16.192,-33.714 -13.829,-32.501C-11.465,-31.288 -10.78,-30.397 -11.003,-29.37C-11.226,-28.342 -12.356,-27.177 -13.401,-25.97C-14.447,-24.763 -15.407,-23.513 -16.932,-22.054C-18.456,-20.594 -20.544,-18.926 -21.619,-17.77C-22.693,-16.614 -22.752,-15.971 -21.771,-15.693C-20.789,-15.415 -18.766,-15.502 -16.903,-15.775C-15.041,-16.049 -13.338,-16.509 -12.625,-16.037C-11.911,-15.565 -12.185,-14.16 -12.559,-12.741C-12.932,-11.322 -13.406,-9.888 -13.357,-8.796C-13.31,-7.704 -12.74,-6.954 -11.867,-7.311C-10.994,-7.668 -9.817,-9.133 -8.845,-10.586C-7.872,-12.04 -7.103,-13.482 -6.151,-13.946C-5.199,-14.411 -4.064,-13.897 -3.478,-12.542C-2.891,-11.187 -2.852,-8.99 -1.909,-6.726C-0.965,-4.461 0.883,-2.13 1.998,-1.065C3.113,0 3.495,-0.202 3.573,-0.83C3.652,-1.459 3.427,-2.512 3.382,-4.49C3.337,-6.468 3.472,-9.37 3.906,-10.493C4.339,-11.615 5.071,-10.959 6.195,-10.224C7.32,-9.489 8.838,-8.676 9.427,-8.869C10.017,-9.063 9.677,-10.263 9.378,-11.636C9.079,-13.01 8.819,-14.559 9.428,-19.699" style="fill:none;fill-rule:nonzero;stroke:black;stroke-width:1px;stroke-linecap:butt;stroke-linejoin:miter;stroke-miterlimit:10;"/>
        </g>
    </g>
    <g id="鑰虫満">
        <g transform="matrix(1,0,0,1,176.325,154.982)">
            <path d="M0,-27.347C-0.33,-27.613 -0.228,-28.139 0.18,-28.256C1.839,-28.732 5.171,-29.661 6.296,-29.784C7.817,-29.951 9.094,-28.676 11.655,-26.534C13.799,-24.742 18.112,-21.508 20.547,-19.263C21.021,-18.826 24.984,-14.701 24.151,-11.964C23.754,-10.658 21.468,-7.581 20.567,-6.495C19.303,-4.97 12.811,2.604 12.811,2.604L5.993,-6.708L14.788,-15.416L0,-27.347Z" style="fill:rgb(239,244,239);fill-rule:nonzero;stroke:rgb(15,15,15);stroke-width:1px;stroke-linecap:butt;stroke-linejoin:miter;stroke-miterlimit:10;"/>
        </g>
        <g transform="matrix(1,0,0,1,185.615,126.532)">
            <path d="M0,19.191L-12.212,7.573L-10.155,0.117C-10.062,0 -9.92,0.038 -9.713,0.226L6.194,13.042L0,19.191Z" style="fill:rgb(82,78,72);fill-rule:nonzero;"/>
        </g>
        <g transform="matrix(-0.909287,-0.416169,-0.416169,0.909287,184.706,153.993)">
            <path d="M-5.154,-20.396C-5.354,-19.159 0.847,-3.4 0.847,-3.4L-5.154,0.799C-5.154,0.799 -9.619,-13.246 -9.376,-16.209C-9.174,-18.653 -5.154,-20.396 -5.154,-20.396" style="fill:rgb(196,206,198);fill-rule:nonzero;"/>
        </g>
        <g transform="matrix(1,0,0,1,167.179,142.426)">
            <path d="M0,40.853C4.935,40.853 8.709,37.508 11.033,33.634C13.562,29.423 14.464,25.263 14.464,20.427C14.464,15.591 13.562,11.431 11.034,7.22C8.709,3.346 4.936,0 0,0C-4.935,0 -8.708,3.346 -11.033,7.22C-13.561,11.431 -14.463,15.591 -14.463,20.427C-14.463,25.263 -13.561,29.423 -11.033,33.634C-8.708,37.508 -4.935,40.853 0,40.853" style="fill:rgb(44,49,48);fill-rule:nonzero;"/>
        </g>
        <g transform="matrix(1,0,0,1,87.7702,147.998)">
            <path d="M0,28.54C0.11,28.561 0.22,28.58 0.33,28.59C0.027,28.86 -0.284,29.11 -0.605,29.33C-0.999,29.62 -1.412,29.87 -1.833,30.101C-3.363,30.931 -5.104,31.4 -7.02,31.4C-15.377,31.4 -20.271,22.42 -20.271,14.27C-20.271,6.12 -15.377,-2.86 -7.02,-2.86C-6.058,-2.86 -5.141,-2.74 -4.271,-2.51L-4.261,-2.51C-3.592,-2.34 -2.96,-2.11 -2.355,-1.82L-0.889,-0.99C-1.191,-0.91 -1.494,-0.82 -1.787,-0.72C-0.88,0.15 0.018,1.3 0.559,2.78C2.758,8.76 2.969,11.66 2.978,18.141C2.987,22.46 1.539,26.311 0,28.54Z" style="fill:rgb(187,72,118);fill-rule:nonzero;stroke:rgb(4,0,0);stroke-width:1px;stroke-linecap:butt;stroke-linejoin:miter;stroke-miterlimit:10;"/>
        </g>
        <g transform="matrix(1,0,0,1,172.635,144.964)">
            <path d="M0,35.778C9.308,35.778 13.956,25.8 13.956,17.889C13.956,9.978 9.308,0 0,0C-9.308,0 -13.956,9.978 -13.956,17.889C-13.956,25.8 -9.308,35.778 0,35.778" style="fill:rgb(252,252,252);fill-rule:nonzero;"/>
        </g>
        <g transform="matrix(1,0,0,1,177.075,144.964)">
            <path d="M0,35.778C9.308,35.778 13.956,25.8 13.956,17.889C13.956,9.978 9.308,0 0,0C-9.308,0 -13.956,9.978 -13.956,17.889C-13.956,25.8 -9.308,35.778 0,35.778" style="fill:rgb(187,72,118);fill-rule:nonzero;"/>
        </g>
        <g transform="matrix(1,0,0,1,177.075,144.964)">
            <path d="M0,35.778C9.308,35.778 13.956,25.8 13.956,17.889C13.956,9.978 9.308,0 0,0C-9.308,0 -13.956,9.978 -13.956,17.889C-13.956,25.8 -9.308,35.778 0,35.778Z" style="fill:none;fill-rule:nonzero;stroke:rgb(4,0,0);stroke-width:1px;stroke-linecap:butt;stroke-linejoin:miter;stroke-miterlimit:10;"/>
        </g>
        <g transform="matrix(1,0,0,1,174.447,151.471)">
            <path d="M0,22.258C1.2,22.53 3.156,22.163 4.16,21.815C5.165,21.466 5.218,21.136 5.243,20.714C5.268,20.291 5.264,19.777 5.185,18.681C5.105,17.584 4.951,15.907 5.027,15.001C5.103,14.096 5.407,13.961 5.78,14.333C6.152,14.705 6.594,15.585 6.976,16.391C7.358,17.196 7.682,17.929 8.132,18.081C8.582,18.234 9.157,17.806 9.739,17.487C10.321,17.166 10.909,16.955 11.041,16.224C11.173,15.493 10.85,14.242 10.65,13.267C10.452,12.292 10.378,11.593 10.499,11.033C10.619,10.475 10.934,10.056 11.322,10.549C11.711,11.043 12.175,12.449 12.552,13.402C12.929,14.355 13.22,14.854 13.603,14.955C13.985,15.056 14.46,14.758 14.972,14.151C15.482,13.543 16.032,12.626 16.165,11.086C16.298,9.547 16.015,7.386 15.491,5.412C14.969,3.439 14.207,1.654 13.572,0.727C12.938,-0.201 12.433,-0.272 11.769,-0.185C11.105,-0.098 10.285,0.146 9.779,0.314C9.273,0.482 9.081,0.574 8.856,1.566C8.631,2.558 8.373,4.451 8.023,5.436C7.673,6.42 7.23,6.496 6.741,6.704C6.251,6.913 5.714,7.254 5.249,6.674C4.783,6.094 4.391,4.592 3.943,3.705C3.496,2.818 2.994,2.546 1.751,2.579C0.508,2.612 -1.478,2.949 -2.6,3.536C-3.723,4.124 -3.981,4.962 -3.753,7.776C-3.523,10.588 -2.807,15.375 -2.226,18.224C-1.645,21.073 -1.2,21.986 0,22.258" style="fill:rgb(252,252,252);fill-rule:nonzero;"/>
        </g>
        <g transform="matrix(1,0,0,1,87.8542,147.739)">
            <path d="M0,28.799C0.106,28.82 0.213,28.839 0.32,28.849C0.026,29.119 -0.276,29.369 -0.588,29.589C-0.971,29.879 -1.372,30.129 -1.781,30.36L-1.933,30.36C-9.564,30.36 -14.364,22.239 -14.364,14.4C-14.364,6.919 -10.01,-0.801 -3.001,-1.511L-2.992,-1.511C-2.761,-1.541 -2.529,-1.561 -2.289,-1.561L-0.864,-0.731C-1.158,-0.651 -1.452,-0.561 -1.737,-0.461C-0.855,0.409 0.018,1.559 0.543,3.039C2.68,9.019 2.885,11.919 2.894,18.4C2.903,22.719 1.496,26.57 0,28.799" style="fill:rgb(252,252,252);fill-rule:nonzero;"/>
        </g>
        <g transform="matrix(1,0,0,1,90.8318,157.678)">
            <path d="M0,8.461C0.008,12.78 -1.36,16.631 -2.815,18.86L-2.824,18.86C-8.982,17.811 -13.192,11.15 -13.192,4.011C-13.192,-2.459 -9.736,-8.529 -4.504,-10.399C-3.647,-9.529 -2.798,-8.379 -2.287,-6.899C-0.208,-0.92 -0.009,1.981 0,8.461" style="fill:rgb(44,49,48);fill-rule:nonzero;"/>
        </g>
        <g transform="matrix(1,0,0,1,86.1262,145.138)">
            <path d="M0,33.43C0.236,33.409 0.508,33.25 0.793,32.94C0.981,32.75 1.176,32.5 1.378,32.19C1.531,31.96 1.685,31.7 1.831,31.4L1.838,31.4C3.007,29.17 4.107,25.32 4.1,21C4.093,14.52 3.933,11.619 2.262,5.64C1.852,4.16 1.169,3.01 0.48,2.14C0.146,1.72 -0.195,1.37 -0.501,1.09C-0.508,1.08 -0.508,1.09 -0.508,1.09C-0.85,0.77 -1.156,0.53 -1.399,0.35L-1.406,0.35C-1.741,0.11 -1.957,0 -1.957,0" style="fill:none;fill-rule:nonzero;stroke:rgb(44,49,48);stroke-width:1px;stroke-linecap:butt;stroke-linejoin:miter;stroke-miterlimit:10;"/>
        </g>
    </g>
    <g id="鐪奸暅">
        <g transform="matrix(0.995746,0.0921452,0.0921452,-0.995746,109.969,156.646)">
            <path d="M0.068,-0.442C2.853,1.736 6.083,1.736 9.759,-0.442" style="fill:none;fill-rule:nonzero;stroke:rgb(2,2,2);stroke-width:2px;"/>
        </g>
        <g transform="matrix(1,0,0,1,93.4201,173.494)">
            <path d="M0,-21.928C3.024,-22.368 7.852,-22.395 10.683,-22.101C13.513,-21.808 14.345,-21.194 15.108,-20.259C15.871,-19.324 16.565,-18.069 16.634,-15.758C16.704,-13.448 16.148,-10.082 15.233,-7.319C14.317,-4.554 13.041,-2.391 11.903,-1.229C10.766,-0.067 9.767,0.093 7.547,0.226C5.327,0.36 1.887,0.467 -0.458,-0.148C-2.803,-0.762 -4.051,-2.097 -5.089,-4.394C-6.126,-6.691 -6.953,-9.949 -6.981,-12.673C-7.009,-15.398 -6.238,-17.588 -5.242,-19.11C-4.246,-20.633 -3.024,-21.487 0,-21.928Z" style="fill:none;fill-rule:nonzero;stroke:rgb(2,2,2);stroke-width:2px;"/>
        </g>
        <g transform="matrix(0.995099,0.0988879,0.0988879,-0.995099,110.043,158.25)">
            <path d="M0.06,-0.465C2.651,1.488 5.813,1.487 9.546,-0.465" style="fill:none;fill-rule:nonzero;stroke:rgb(2,2,2);stroke-width:2px;"/>
        </g>
        <g transform="matrix(1,0,0,1,126.805,173.46)">
            <path d="M0,-21.01C4.647,-21.457 12.616,-21.435 16.987,-21.129C21.359,-20.823 22.133,-20.231 22.862,-19.473C23.592,-18.716 24.277,-17.793 24.601,-15.515C24.925,-13.238 24.887,-9.607 24.086,-6.919C23.286,-4.231 21.722,-2.487 20.301,-1.445C18.881,-0.403 17.605,-0.062 14.1,0.15C10.595,0.362 4.86,0.447 1.383,-0.071C-2.094,-0.588 -3.313,-1.705 -4.437,-3.409C-5.56,-5.113 -6.587,-7.402 -7.048,-10.053C-7.509,-12.705 -7.403,-15.718 -6.687,-17.682C-5.972,-19.647 -4.647,-20.563 0,-21.01Z" style="fill:none;fill-rule:nonzero;stroke:rgb(2,2,2);stroke-width:2px;"/>
        </g>
    </g>
    <g id="鐜懓">
        <g transform="matrix(1,0,0,1,153.217,272.109)">
            <path d="M0,-46.204C-12.663,-36.838 -16.838,-32.43 -19.528,-28.59C-22.218,-24.75 -23.423,-21.478 -23.939,-17.715C-24.456,-13.951 -24.285,-9.694 -23.377,-6.206C-22.469,-2.719 -20.823,0 -18.271,-0.034C-15.718,-0.068 -12.258,-2.855 -7.973,-6.435C-3.688,-10.015 1.421,-14.387 3.498,-20.274C5.574,-26.161 4.618,-33.562 4.009,-45.705" style="fill:rgb(173,249,79);fill-rule:nonzero;stroke:rgb(2,2,2);stroke-width:1px;stroke-linecap:butt;stroke-linejoin:miter;stroke-miterlimit:10;"/>
        </g>
        <g transform="matrix(1,0,0,1,116.807,247.336)">
            <path d="M0,-27.543C51.286,-28.245 75.31,-21.856 91.81,-17.771C108.31,-13.686 117.284,-11.904 122.696,-11.922C128.109,-11.939 129.959,-13.754 131.723,-15.039C133.487,-16.323 135.166,-17.077 136.279,-17.111C137.393,-17.146 137.94,-16.46 138.488,-14.628C139.036,-12.795 139.585,-9.814 139.687,-7.263C139.79,-4.711 139.447,-2.587 138.437,-1.233C137.427,0.119 135.748,0.702 132.854,0.616C129.959,0.53 125.848,-0.224 118.654,-2.501C111.461,-4.779 101.185,-8.582 92.483,-11.288C83.782,-13.994 76.657,-15.604 70.08,-16.923C63.503,-18.241 57.475,-19.27 52.867,-19.886C48.26,-20.503 45.074,-20.708 35.9,-21.865C26.727,-23.023 11.565,-25.133 -10.354,-17.994" style="fill:rgb(36,148,11);fill-rule:nonzero;stroke:rgb(5,1,1);stroke-width:1px;stroke-linecap:butt;stroke-linejoin:miter;stroke-miterlimit:10;"/>
        </g>
        <g transform="matrix(1,0,0,1,117.38,242.925)">
            <path d="M0,-22.602C39.305,-22.602 46.753,-21.934 60.39,-19.752C73.559,-17.646 118.02,-6.727 122.305,-7.102C124.874,-7.327 129.652,-8.193 130.68,-9.414C131.805,-10.751 135.108,-12.374 135.993,-12.352C136.877,-12.33 137.797,-8.962 138.18,-7.852C138.563,-6.742 138.172,-4.846 138.526,-3.367C139.132,-0.837 138.202,-0.597 137.361,0.169C136.52,0.934 135.17,1.216 132.875,1.054C130.58,0.892 127.338,0.287 121.693,-1.343C116.048,-2.973 108,-5.626 101.169,-7.569C94.34,-9.51 88.73,-10.741 83.547,-11.777C78.364,-12.813 79.93,-13.164 71.368,-15.04C67.17,-15.958 64.179,-16.499 56.93,-17.54C49.681,-18.58 16.66,-23.818 -0.945,-20.414" style="fill:rgb(187,252,112);fill-rule:nonzero;"/>
        </g>
        <g transform="matrix(1,0,0,1,116.807,247.336)">
            <path d="M0,-27.543C51.286,-28.245 75.31,-21.856 91.81,-17.771C108.31,-13.686 117.284,-11.904 122.696,-11.922C128.109,-11.939 129.959,-13.754 131.723,-15.039C133.487,-16.323 135.166,-17.077 136.279,-17.111C137.393,-17.146 137.94,-16.46 138.488,-14.628C139.036,-12.795 139.585,-9.814 139.687,-7.263C139.79,-4.711 139.447,-2.587 138.437,-1.233C137.427,0.119 135.748,0.702 132.854,0.616C129.959,0.53 125.848,-0.224 118.654,-2.501C111.461,-4.779 101.185,-8.582 92.483,-11.288C83.782,-13.994 76.657,-15.604 70.08,-16.923C63.503,-18.241 57.475,-19.27 52.867,-19.886C48.26,-20.503 45.074,-20.708 35.9,-21.865C26.727,-23.023 11.565,-25.133 -10.354,-17.994" style="fill:none;fill-rule:nonzero;stroke:black;stroke-width:1px;stroke-linecap:butt;stroke-linejoin:miter;stroke-miterlimit:10;"/>
        </g>
        <g transform="matrix(1,0,0,1,58.7614,239.823)">
            <path d="M0,-36.697C-10.944,-29.874 -13.738,-25.704 -14.96,-21.445C-16.183,-17.186 -15.833,-12.839 -15.603,-9.609C-15.373,-6.38 -15.262,-4.267 -14.438,-2.254C-13.615,-0.239 -12.078,1.676 -8.934,5.053C-5.791,8.43 -1.042,13.267 2.227,16.286C5.496,19.305 7.284,20.506 10.6,21.132C13.915,21.759 18.758,21.812 21.91,21.655C25.062,21.498 26.524,21.132 27.894,20.195C29.265,19.257 30.543,17.747 31.565,16.501C32.587,15.254 33.352,14.272 34.415,13.89C35.479,13.507 36.841,13.726 37.76,13.422C38.679,13.118 39.155,12.293 39.224,11.161C39.292,10.029 38.953,8.591 40.764,8.214C42.575,7.837 46.536,8.522 49.828,5.537C53.12,2.553 55.742,-4.1 57.316,-9.77C58.889,-15.44 59.414,-20.127 56.716,-27.843C54.019,-35.559 48.098,-46.305 32.611,-44.013C28.478,-55.426 20.618,-58.509 12.954,-56.542C5.29,-54.575 -2.179,-47.557 0.466,-33.103" style="fill:rgb(219,142,8);fill-rule:nonzero;stroke:rgb(2,2,2);stroke-width:1px;stroke-linecap:butt;stroke-linejoin:miter;stroke-miterlimit:10;"/>
        </g>
        <g transform="matrix(1,0,0,1,60.5149,202.821)">
            <path d="M0,2.809C0,2.809 1.908,-4.394 5.897,-5.833C9.887,-7.272 21.334,-9.337 24.636,0.232C27.938,9.799 32.903,22.088 33.621,21.899C34.339,21.708 36.485,21.319 35.638,18.768C34.79,16.217 31.566,-3.177 29.454,-7.732C27.341,-12.287 23.426,-19.279 14.789,-17.795C6.151,-16.31 2.405,-15.079 0.553,-6.855C-1.298,1.37 -2.644,3.804 -1.426,3.701L-0.208,3.597" style="fill:rgb(246,251,120);fill-rule:nonzero;"/>
        </g>
        <g transform="matrix(1,0,0,1,56.3386,250.684)">
            <path d="M0,-42.375C0,-42.375 -9.543,-39.767 -11.371,-30.693C-13.199,-21.62 -7.926,-7.35 -0.239,-3.675C7.447,0 -4.516,-16.499 -5.001,-20.17C-5.486,-23.84 -1.006,-37.916 1.61,-40.127C4.228,-42.339 0,-42.375 0,-42.375" style="fill:rgb(248,232,78);fill-rule:nonzero;"/>
        </g>
        <g transform="matrix(1,0,0,1,63.3488,232.516)">
            <path d="M0,-24.823C0.504,-25.396 2.389,-28.825 8.068,-27.602C13.747,-26.381 18.062,-11.174 16.473,-6.509C14.884,-1.843 16.301,3.606 14.595,3.804C12.889,4.002 13.285,-4.775 13.344,-8.553C13.404,-12.331 13.112,-19.996 8.399,-21.794C3.688,-23.592 0,-24.823 0,-24.823" style="fill:rgb(248,232,78);fill-rule:nonzero;"/>
        </g>
        <g transform="matrix(1,0,0,1,64.4035,225.868)">
            <path d="M0,-2.384C-0.384,-4.129 -1.166,-6.856 1.087,-6.899C3.339,-6.942 4.504,-3.766 3.268,-1.853C2.033,0.06 -1.878,6.352 -4.771,5.525C-7.662,4.699 -11.939,0.855 -10.671,-1.495C-9.403,-3.846 -5.951,-4.697 -4.771,-6.66C-3.589,-8.624 -4.632,-14.182 -1.16,-14.123C2.311,-14.065 7.945,-16.328 7.961,-8.625C7.978,-0.921 8.893,6.78 6.182,9.123C3.47,11.466 -6.044,13.944 -6.21,11.885C-6.376,9.824 -4.587,10.398 -2.296,9.435C-0.005,8.473 3.046,7.429 4.062,4.67C5.078,1.91 6.884,-3.998 5.852,-6.738C4.82,-9.48 2.345,-11.271 0.719,-10.311C-0.906,-9.351 -1.513,-4.798 -3.462,-3.503C-5.411,-2.208 -10.628,-0.281 -8.502,1.169C-6.376,2.618 -4.706,3.452 -2.967,2.295C-1.228,1.137 1.434,-1.248 1.615,-2.532C1.796,-3.817 0,-2.384 0,-2.384" style="fill:rgb(245,232,83);fill-rule:nonzero;"/>
        </g>
        <g transform="matrix(1,0,0,1,61.3147,243.397)">
            <path d="M0,-0.472C1.067,-1.111 3.852,2.288 10.142,-0.123C16.432,-2.534 17.11,-8.338 19.775,-7.66C22.44,-6.984 25.949,-6.751 22.735,-4.009C19.521,-1.266 16.608,0.815 14.861,3.054C13.114,5.294 10.12,7.866 6.01,6.152C1.9,4.439 -4.638,2.304 0,-0.472" style="fill:rgb(248,232,78);fill-rule:nonzero;"/>
        </g>
        <g transform="matrix(1,0,0,1,104.094,242.652)">
            <path d="M0,-6.109C-1.669,-7.375 -4.517,-12.153 -8.675,-8.516C-12.833,-4.88 -15.56,-3.226 -16.648,-0.996C-17.736,1.234 -15.052,1.875 -11.273,2.488C-7.494,3.1 -10.042,6.044 -5.034,3.313C-0.026,0.582 4.376,-1.647 4.293,-3.696C4.211,-5.745 0.469,-5.919 0.469,-5.919" style="fill:rgb(248,232,78);fill-rule:nonzero;"/>
        </g>
        <g transform="matrix(1,0,0,1,96.0129,259.418)">
            <path d="M0,-11.018C0,-11.018 -1.408,-8.803 -4.112,-8.877C-6.816,-8.952 -8.651,-5.193 -10.288,-3.366C-11.924,-1.539 -20.551,0.439 -23.968,-1.149C-27.385,-2.738 -29.865,-4.054 -32.285,-5.882C-34.705,-7.71 -38.123,-9.656 -36.165,-9.827C-34.206,-9.998 -32.275,-9.662 -28.232,-8.495C-24.189,-7.328 -21.327,-4.611 -17.835,-5.873C-14.344,-7.135 -9.807,-8.964 -8.367,-9.827C-6.926,-10.69 -0.005,-11.457 -0.005,-11.457" style="fill:rgb(248,232,78);fill-rule:nonzero;"/>
        </g>
        <g transform="matrix(1,0,0,1,100.233,223.012)">
            <path d="M0,-7.013C-0.023,-11.112 0.91,-16.58 5.696,-14.702C10.481,-12.824 10.867,-10.317 12.616,-7.334C14.365,-4.353 12.938,-5.461 11.947,-0.795C10.957,3.871 11.011,9.567 7.599,8.378C4.187,7.189 -1.819,7.763 -0.908,3.467C0.003,-0.829 0,-7.013 0,-7.013" style="fill:rgb(248,232,78);fill-rule:nonzero;"/>
        </g>
        <g transform="matrix(1,0,0,1,69.1433,232.354)">
            <path d="M0,-29.803C-1.828,-30.804 -0.877,-33.802 1.127,-34.37C2.984,-34.897 7.801,-33.016 9.667,-32.086C13.292,-30.281 13.932,-22.281 16.111,-17.156C18.292,-12.031 21.912,-9.906 23.727,-5.281C25.542,-0.656 24.292,2.774 21.917,3.934C19.542,5.094 18.77,3.91 14.843,2.814C10.917,1.719 14.907,2.421 14.037,-4.43C13.167,-11.281 12.013,-15.42 11.011,-19.165C8.917,-26.989 4.053,-27.581 0,-29.803" style="fill:rgb(245,201,35);fill-rule:nonzero;"/>
        </g>
        <g transform="matrix(1,0,0,1,95.8581,212.217)">
            <path d="M0,-13.894C2.875,-14.019 6.422,-13.74 10.295,-11.442C14.246,-9.098 17.304,-2.975 17.108,-1.425C16.912,0.125 13.214,-2.783 10.595,-5.144C7.976,-7.505 5.046,-7.065 2.733,-7.3C0.419,-7.536 -2.341,-8.753 -2.017,-10.128C-1.693,-11.503 0,-13.894 0,-13.894" style="fill:rgb(245,201,35);fill-rule:nonzero;"/>
        </g>
        <g transform="matrix(1,0,0,1,85.3723,251.684)">
            <path d="M0,-9.596C0,-9.596 -1.021,-8.361 0.583,-7.111C2.188,-5.861 3.625,-5.736 4.625,-5.111C5.625,-4.486 5.125,-3.298 4.062,-3.048C3,-2.798 3.688,-4.361 -1.437,-2.048C-6.562,0.264 -11.015,0.827 -11.882,0.764C-12.75,0.702 -10.813,-1.548 -8.313,-2.923C-5.812,-4.298 -1.625,-9.423 -0.937,-9.923C-0.25,-10.423 0,-9.596 0,-9.596" style="fill:rgb(241,218,69);fill-rule:nonzero;"/>
        </g>
        <g transform="matrix(1,0,0,1,71.7517,243.388)">
            <path d="M0,-7.065C0,-7.065 -1.392,-6.378 -0.123,-5.586C1.146,-4.793 2.284,-4.713 3.075,-4.317C3.866,-3.92 3.47,-3.168 2.63,-3.008C1.789,-2.85 1.213,-3.201 -2.732,-1.461C-7.454,0.622 -10.685,-1.206 -10.67,-1.893C-10.655,-2.581 -9.139,-2.057 -7.161,-2.929C-5.183,-3.801 -1.87,-7.052 -1.326,-7.37C-0.782,-7.687 0,-7.065 0,-7.065" style="fill:rgb(241,218,69);fill-rule:nonzero;"/>
        </g>
        <g transform="matrix(1,0,0,1,155.06,271.986)">
            <path d="M0,-46.081C-0.394,-43.947 -0.969,-41.853 -1.581,-39.764C-2.361,-37.737 -3.209,-35.732 -4.201,-33.787C-5.202,-31.852 -6.307,-29.939 -7.811,-28.276C-8.225,-27.892 -8.587,-27.461 -9.047,-27.117L-10.39,-26.149L-10.996,-25.709L-11.534,-25.157C-11.711,-24.97 -11.899,-24.796 -12.067,-24.599L-12.542,-23.974C-15.041,-20.584 -16.623,-16.512 -18.017,-12.481C-18.693,-10.447 -19.291,-8.384 -19.782,-6.304C-20.102,-5.284 -20.41,-4.244 -20.587,-3.219C-20.72,-2.171 -20.786,-1.071 -20.907,0C-20.983,-1.085 -21.094,-2.146 -21.109,-3.252C-21.082,-4.375 -20.925,-5.449 -20.756,-6.53C-20.255,-8.65 -19.65,-10.736 -18.966,-12.798C-17.543,-16.892 -15.971,-20.997 -13.337,-24.581L-12.831,-25.243C-12.65,-25.456 -12.443,-25.652 -12.25,-25.856L-11.655,-26.46L-10.955,-26.975L-9.67,-27.898C-9.266,-28.198 -8.926,-28.604 -8.549,-28.951C-7.149,-30.494 -6.065,-32.353 -5.091,-34.243C-4.125,-36.144 -3.278,-38.115 -2.523,-40.121C-1.611,-42.069 -0.796,-44.065 0,-46.081" style="fill:rgb(61,168,3);fill-rule:nonzero;"/>
        </g>
        <g transform="matrix(1,0,0,1,165.603,213.853)">
            <path d="M0,6.107C1.01,4.301 0.823,1.898 0.055,0.063C-0.713,-1.772 -2.063,-3.039 -3.826,-3.609C-5.589,-4.178 -7.766,-4.052 -9.579,-3.775C-11.391,-3.498 -12.838,-3.073 -14.025,-1.747C-15.211,-0.421 -16.137,1.804 -15.895,3.945C-15.651,6.085 -14.239,8.139 -12.298,9.19C-10.358,10.24 -7.889,10.285 -5.552,9.703C-3.215,9.121 -1.009,7.913 0,6.107" style="fill:rgb(136,209,79);fill-rule:nonzero;"/>
        </g>
        <g transform="matrix(1,0,0,1,165.603,213.853)">
            <path d="M0,6.107C1.01,4.301 0.823,1.898 0.055,0.063C-0.713,-1.772 -2.063,-3.039 -3.826,-3.609C-5.589,-4.178 -7.766,-4.052 -9.579,-3.775C-11.391,-3.498 -12.838,-3.073 -14.025,-1.747C-15.211,-0.421 -16.137,1.804 -15.895,3.945C-15.651,6.085 -14.239,8.139 -12.298,9.19C-10.358,10.24 -7.889,10.285 -5.552,9.703C-3.215,9.121 -1.009,7.913 0,6.107Z" style="fill:none;fill-rule:nonzero;stroke:rgb(15,15,15);stroke-width:1px;stroke-linecap:butt;stroke-linejoin:miter;stroke-miterlimit:10;"/>
        </g>
        <g transform="matrix(1,0,0,1,161.105,215.323)">
            <path d="M0,3.89C0.543,3.394 0.755,2.561 0.708,1.854C0.661,1.148 0.355,0.568 -0.168,0.176C-0.691,-0.214 -1.432,-0.417 -2.068,-0.527C-2.704,-0.638 -3.235,-0.657 -3.783,-0.342C-4.33,-0.028 -4.892,0.62 -5.055,1.37C-5.218,2.121 -4.981,2.975 -4.454,3.548C-3.926,4.121 -3.108,4.414 -2.262,4.481C-1.416,4.547 -0.542,4.387 0,3.89" style="fill:rgb(90,132,53);fill-rule:nonzero;"/>
        </g>
        <g transform="matrix(1,0,0,1,161.105,215.323)">
            <path d="M0,3.89C0.543,3.394 0.755,2.561 0.708,1.854C0.661,1.148 0.355,0.568 -0.168,0.176C-0.691,-0.214 -1.432,-0.417 -2.068,-0.527C-2.704,-0.638 -3.235,-0.657 -3.783,-0.342C-4.33,-0.028 -4.892,0.62 -5.055,1.37C-5.218,2.121 -4.981,2.975 -4.454,3.548C-3.926,4.121 -3.108,4.414 -2.262,4.481C-1.416,4.547 -0.542,4.387 0,3.89Z" style="fill:none;fill-rule:nonzero;stroke:rgb(187,252,112);stroke-width:2px;stroke-linecap:butt;stroke-linejoin:miter;stroke-miterlimit:10;"/>
        </g>
        <g transform="matrix(1,0,0,1,140.15,255.727)">
            <path d="M0,-5.154C-1.157,-4.694 -2.634,-5.27 -3.297,-5.026C-3.619,-4.915 -3.901,-4.693 -4.221,-4.342L-5.254,-3.116C-6.012,-2.245 -6.823,-1.418 -7.692,-0.645C-8.569,0.12 -9.483,0.851 -10.549,1.436C-10.105,0.289 -9.51,-0.712 -8.877,-1.677C-8.236,-2.635 -7.539,-3.541 -6.786,-4.4L-6.213,-5.037C-5.99,-5.256 -5.788,-5.514 -5.51,-5.728C-5.007,-6.163 -4.265,-6.59 -3.43,-6.588C-2.604,-6.567 -2.027,-6.204 -1.538,-5.938C-1.044,-5.637 -0.576,-5.376 0,-5.154" style="fill:rgb(61,168,3);fill-rule:nonzero;"/>
        </g>
        <g transform="matrix(1,0,0,1,149.053,259.65)">
            <path d="M0,-18.367C0.229,-18.028 0.468,-17.712 0.739,-17.469C1.003,-17.225 1.331,-17.053 1.682,-16.697C2.342,-15.943 2.536,-15.052 2.709,-14.25C2.997,-12.615 3.118,-11.094 3.214,-9.503C3.305,-7.928 3.31,-6.347 3.25,-4.764C3.189,-3.181 3.057,-1.596 2.726,0C2.226,-1.553 1.923,-3.115 1.692,-4.68C1.462,-6.246 1.298,-7.814 1.218,-9.388C1.122,-10.943 1.146,-12.576 1.163,-14.083C1.14,-14.824 1.146,-15.573 0.889,-16.128C0.778,-16.415 0.476,-16.739 0.291,-17.147C0.101,-17.546 0.031,-17.963 0,-18.367" style="fill:rgb(61,168,3);fill-rule:nonzero;"/>
        </g>
    </g>
    <defs>
        <linearGradient id="_Linear1" x1="0" y1="0" x2="1" y2="0" gradientUnits="userSpaceOnUse" gradientTransform="matrix(1,1.38778e-17,1.38778e-17,-1,0,-0.00276143)"><stop offset="0" style="stop-color:rgb(206,61,27);stop-opacity:1"/><stop offset="0.19" style="stop-color:rgb(196,58,27);stop-opacity:1"/><stop offset="1" style="stop-color:rgb(86,29,24);stop-opacity:1"/></linearGradient>
        <linearGradient id="_Linear2" x1="0" y1="0" x2="1" y2="0" gradientUnits="userSpaceOnUse" gradientTransform="matrix(1,5.55112e-17,5.55112e-17,-1,0,-0.00409292)"><stop offset="0" style="stop-color:rgb(121,168,219);stop-opacity:1"/><stop offset="1" style="stop-color:rgb(22,74,130);stop-opacity:1"/></linearGradient>
    </defs>
</svg>
